<svg width="100" height="80" viewBox="0 0 2052 1276" fill="none" xmlns="http://www.w3.org/2000/svg">
<path d="M543.685 978.38C543.794 977.466 543.903 976.552 543.988 974.242C543.35 971.587 542.737 970.327 542.123 969.067C541.406 965.863 540.689 962.66 539.714 958.2C538.844 955.463 538.231 953.983 537.619 952.503C537.604 952.092 537.589 951.682 537.357 950.212C536.743 948.627 536.346 948.101 535.95 947.575C535.918 946.823 535.886 946.071 535.675 944.16C534.675 940.621 533.854 938.241 533.032 935.861C531.866 931.164 530.699 926.467 529.301 920.489C528.562 918.244 528.055 917.28 527.548 916.316C526.62 911.9 525.691 907.484 524.523 902.176C524.248 900.858 524.016 900.626 523.587 900.591C523.587 900.591 523.692 900.433 523.701 899.676C523.004 896.712 522.296 894.505 521.589 892.297C520.843 888.119 520.097 883.941 519.102 878.498C518.417 876.26 517.982 875.288 517.546 874.315C517.496 873.398 517.447 872.481 517.242 870.392C516.632 868.231 516.177 867.242 515.723 866.253C515.461 863.956 515.199 861.659 514.724 858.306C514.466 856.744 514.206 856.4 513.73 856.218C513.481 853.944 513.232 851.67 512.778 848.328C512.506 846.737 512.225 846.385 511.729 846.204C511.541 844.06 511.354 841.915 510.993 838.433C510.302 835.516 509.786 833.936 509.269 832.357C509.181 830.687 509.094 829.017 508.87 826.171C508.357 824.18 507.98 823.365 507.603 822.551C507.284 819.479 506.964 816.408 506.495 812.274C506.357 810.749 506.147 810.431 505.716 810.259C505.649 808.753 505.582 807.248 505.402 804.338C504.74 800.716 504.191 798.498 503.642 796.281C503.455 793.47 503.268 790.659 502.96 786.476C502.439 783.497 502.038 781.891 501.637 780.285C501.631 778.767 501.624 777.25 501.521 774.202C500.833 768.541 500.241 764.411 499.65 760.28C499.401 754.736 499.153 749.192 498.858 742.167C498.435 738.547 498.058 736.407 497.681 734.267C497.775 708.887 497.869 683.507 498.182 656.661C498.397 653.54 498.394 651.885 498.39 650.229C498.871 645.496 499.351 640.763 500.048 634.693C500.184 632.317 500.104 631.278 500.024 630.238C500.598 626.818 501.173 623.398 502.062 618.469C502.746 613.389 503.116 609.818 503.487 606.247C505.574 596.123 507.662 585.999 510.144 574.685C510.68 572.406 510.821 571.317 510.962 570.228C513.815 560.733 516.669 551.237 519.926 540.576C520.567 538.35 520.805 537.29 521.042 536.23C521.958 534.065 522.874 531.9 524.291 528.595C525.569 525.049 526.346 522.643 527.123 520.236C530.657 512.873 534.191 505.51 538.337 497.015C540.528 492.675 542.107 489.466 543.686 486.258C545.056 484.235 546.426 482.212 548.452 479.173C552.625 472.854 556.141 467.55 559.657 462.247C560.188 461.788 560.718 461.329 561.97 460.136C563.805 457.733 564.919 456.065 566.033 454.396C569.03 451.277 572.028 448.158 575.876 444.191C579.677 440.302 582.629 437.26 585.581 434.218C588.666 431.823 591.75 429.427 595.797 426.344C598.614 424.112 600.468 422.568 602.323 421.024C602.323 421.024 602.237 420.568 602.86 420.655C604.264 420.019 605.045 419.296 605.826 418.573C609.446 416.656 613.066 414.739 617.822 412.333C620.748 410.736 622.539 409.627 624.33 408.518C627.759 407.255 631.188 405.992 635.769 404.338C637.528 403.493 638.137 403.038 638.745 402.583C645.228 401.194 651.711 399.804 659.812 398.271C674.866 397.969 688.303 397.811 701.74 397.653C711.129 399.989 720.519 402.325 731.096 405.193C733.414 405.933 734.544 406.141 735.674 406.348C737.117 407.033 738.56 407.719 741.021 408.925C743.249 409.765 744.459 410.085 745.668 410.405C752.554 414.244 759.439 418.083 767.342 422.663C772.82 426.207 777.281 429.008 781.741 431.81C781.741 431.81 782.228 432.382 782.907 432.934C784.271 433.818 784.955 434.15 785.64 434.482C786.973 435.762 788.306 437.042 790.523 439.017C792.794 440.635 794.181 441.559 795.568 442.482C795.568 442.482 795.677 442.308 795.828 442.897C797.237 444.366 798.495 445.247 799.753 446.128C801.512 447.941 803.27 449.755 805.827 452.411C808.211 454.541 809.797 455.829 811.383 457.116C814.551 460.573 817.718 464.031 821.637 468.428C824.797 471.743 827.204 474.118 829.611 476.493C830.764 478.164 831.917 479.834 833.781 482.424C836.787 485.922 839.082 488.5 841.377 491.079C842.898 493.357 844.419 495.636 846.643 498.847C848.678 501.399 850.012 503.018 851.345 504.638C851.345 504.638 851.317 504.335 851.359 505.018C852.32 506.772 853.238 507.844 854.156 508.916C854.156 508.916 854.432 509.791 854.938 510.71C856.787 513.361 858.131 515.093 859.474 516.826C859.914 517.78 860.354 518.734 861.316 520.596C863.062 523.116 864.288 524.729 865.513 526.341C867.132 529.42 868.751 532.499 870.99 536.689C873.39 540.767 875.17 543.733 877.603 547.789C881.604 543.104 884.556 539.648 887.507 536.192C893.41 530.726 899.312 525.259 906.156 519.04C908.851 516.514 910.603 514.741 912.356 512.967C912.356 512.967 912.179 512.264 912.916 512.431C916.965 509.799 920.278 507.001 923.59 504.203C926.072 502.563 928.554 500.923 931.899 498.641C933.251 497.481 933.74 496.963 934.23 496.444C935.212 496.025 936.194 495.606 938.033 494.623C940.025 493.001 941.16 491.943 942.295 490.884C942.295 490.884 941.964 491.001 942.815 490.863C949.155 487.635 954.644 484.545 960.132 481.455C963.063 480.155 965.994 478.855 970.111 476.967C978.113 473.708 984.928 471.039 991.743 468.369C992.638 468.298 993.534 468.226 995.613 467.962C997.748 467.215 998.7 466.663 999.652 466.11C1009.51 464.83 1019.36 462.6 1029.22 462.511C1041.78 462.397 1054.35 464.018 1068.11 465.223C1070.1 465.67 1070.87 465.785 1071.65 465.899C1078.94 468.475 1086.23 471.052 1094.62 474.204C1097.05 475.271 1098.38 475.762 1099.71 476.253C1100.64 476.891 1101.57 477.529 1103.41 478.72C1105.43 479.663 1106.54 480.053 1107.64 480.443C1107.64 480.443 1107.68 480.289 1107.91 480.891C1110 482.401 1111.86 483.309 1113.72 484.218C1115.33 485.454 1116.93 486.69 1119.42 488.645C1122.06 490.437 1123.82 491.509 1125.58 492.581C1128.96 495.506 1132.34 498.43 1136.53 502.202C1139.53 505.042 1141.73 507.035 1143.93 509.028C1147.39 513.25 1150.86 517.473 1155.06 522.647C1156.98 524.832 1158.16 526.064 1159.34 527.297C1161.09 530.07 1162.84 532.843 1165.2 536.573C1167.07 539.122 1168.34 540.713 1169.6 542.305C1171.2 545.389 1172.8 548.473 1174.95 552.563C1176.21 554.48 1176.91 555.39 1177.62 556.3C1179.24 560.025 1180.87 563.751 1183.05 568.562C1184.43 571.145 1185.25 572.642 1186.07 574.138C1187.13 577.129 1188.2 580.121 1189.63 584.254C1190.61 586.338 1191.22 587.279 1191.83 588.221C1193.54 593.82 1195.25 599.42 1197.28 606.399C1198.95 611.951 1200.29 616.122 1201.63 620.294C1201.77 621.802 1201.9 623.311 1202.2 626.068C1202.85 628.285 1203.34 629.255 1203.83 630.225C1204.1 632.554 1204.37 634.884 1204.98 638.541C1205.63 641.343 1205.95 642.815 1206.27 644.288C1211.71 680.204 1212.97 716.253 1209.54 753.926C1209.36 757.042 1209.33 758.679 1209.31 760.315C1208.73 764.366 1208.15 768.417 1207.37 773.545C1206.85 775.067 1206.92 775.437 1207.38 775.732C1206.17 782.675 1204.96 789.617 1203.47 798.099C1201.7 807.199 1200.22 814.759 1198.73 822.32C1197.73 826.446 1196.72 830.572 1195.32 835.873C1194.74 838.132 1194.54 839.215 1194.35 840.298C1194.07 841.154 1193.79 842.009 1193.09 844.095C1191.65 849.637 1190.63 853.948 1189.61 858.26C1189 859.842 1188.39 861.424 1187.33 864.172C1185.92 868.986 1184.97 872.635 1184.01 876.284C1182.64 879.91 1181.27 883.536 1179.39 888.388C1177.66 893.77 1176.45 897.926 1175.25 902.082C1174.13 904.505 1173.02 906.928 1171.58 910.113C1171.27 910.873 1171 911.359 1171 911.359L1171.34 911.796C1170.87 912.756 1170.39 913.715 1169.35 915.935C1167.77 920.22 1166.77 923.246 1165.77 926.271C1165.77 926.271 1165.34 926.758 1164.95 927.436C1164.41 928.81 1164.25 929.505 1164.08 930.201C1163.28 931.766 1162.48 933.331 1161.13 935.972C1160.03 938.685 1159.46 940.321 1158.9 941.958C1157.7 944.577 1156.49 947.197 1154.8 950.817C1154.06 952.615 1153.8 953.413 1153.54 954.21C1151.02 959.104 1148.5 963.997 1145.36 970.03C1141.76 977.542 1138.76 983.914 1135.77 990.286C1133.73 993.797 1131.69 997.308 1128.98 1001.88C1123.35 1012.01 1118.41 1021.09 1113.46 1030.17C1111.54 1033.07 1109.63 1035.97 1107.09 1039.86C1105.54 1042.65 1104.63 1044.46 1103.71 1046.27C1103.71 1046.27 1103.3 1046.61 1102.86 1047.13C1101.93 1048.54 1101.44 1049.43 1100.95 1050.33C1100.48 1050.95 1100.01 1051.57 1098.89 1053.2C1095.84 1058.14 1093.43 1062.07 1091.02 1065.99C1089.33 1068.3 1087.63 1070.6 1085.22 1073.87C1082.64 1077.92 1080.78 1081 1078.92 1084.09C1078.42 1084.28 1078.06 1084.62 1077.16 1085.79C1074.89 1089.07 1073.29 1091.66 1071.68 1094.25C1071.16 1094.75 1070.65 1095.24 1069.44 1096.56C1065.82 1101.72 1062.87 1106.04 1059.93 1110.37C1059.93 1110.37 1059.77 1110.37 1059.25 1110.76C1057.48 1113.29 1056.22 1115.42 1054.96 1117.55C1054.96 1117.55 1055.5 1117.52 1054.64 1117.82C1048.28 1125.44 1042.77 1132.77 1037.27 1140.09C1036.19 1141.13 1035.11 1142.17 1033.35 1144.01C1031.34 1146.66 1030.02 1148.5 1028.71 1150.35C1026.6 1152.77 1024.5 1155.19 1021.58 1158.53C1011.59 1170.33 1002.41 1181.2 993.241 1192.07C991.165 1194.21 989.088 1196.36 986.214 1199.32C984.313 1201.56 983.21 1202.98 982.108 1204.4C980.074 1206.43 978.04 1208.46 975.128 1211.29C972.67 1214.02 971.09 1215.95 969.51 1217.88C967.276 1220.05 965.042 1222.21 962 1225.19C960.439 1227.15 959.688 1228.3 958.936 1229.44C958.936 1229.44 959.504 1229.89 958.587 1229.88C955.422 1232.36 953.173 1234.86 950.924 1237.35C950.924 1237.35 950.996 1237.56 950.302 1237.72C947.407 1240.42 945.207 1242.97 943.006 1245.52C943.006 1245.52 943.53 1246.22 942.635 1246.06C939.052 1248.67 936.362 1251.45 933.672 1254.24C933.672 1254.24 933.705 1254.26 933.092 1254.48C930.184 1257.19 927.889 1259.69 925.594 1262.19C925.594 1262.19 925.697 1262.27 925.062 1262.41C922.707 1264.4 920.987 1266.24 919.266 1268.08C918.159 1268.94 917.051 1269.8 915.096 1271.38C913.128 1273.39 912.008 1274.67 910.888 1275.96C910.888 1275.96 910.172 1275.99 909.303 1275.93C904.855 1271.35 901.276 1266.83 897.697 1262.31C897.734 1261.62 897.507 1261.03 896.418 1259.63C892.567 1254.24 889.315 1249.75 886.062 1245.27C885.662 1244.38 885.262 1243.49 884.302 1241.76C882.423 1239.33 881.104 1237.75 879.785 1236.16C879.785 1236.16 879.707 1236.26 879.649 1235.55C876.389 1230.41 873.187 1225.98 869.986 1221.55C868.225 1218.69 866.464 1215.83 864.046 1211.97C861.34 1207.64 858.419 1204.44 861.767 1200.29C862.903 1199.19 864.039 1198.08 865.962 1196.15C872.268 1188.29 877.789 1181.26 883.309 1174.23C889.271 1166.8 895.233 1159.36 901.932 1151.07C902.986 1149.57 903.304 1148.91 903.622 1148.25C904.784 1146.91 905.946 1145.57 907.824 1143.39C910.064 1140.43 911.589 1138.32 913.113 1136.21C913.893 1135.32 914.673 1134.42 916.177 1132.63C919.628 1127.9 922.354 1124.06 925.079 1120.21C929.184 1114.73 933.289 1109.25 938.158 1102.8C940.523 1099.31 942.125 1096.8 943.727 1094.28C943.727 1094.28 943.705 1094.26 944.29 1093.94C947.437 1089.49 949.999 1085.36 952.561 1081.24C952.561 1081.24 952.518 1081.08 953.156 1080.77C955.861 1077.14 957.927 1073.8 959.992 1070.47C959.992 1070.47 959.814 1070.28 960.441 1070.07C963.406 1066.05 965.744 1062.23 968.081 1058.42C971.713 1053.07 975.344 1047.72 979.694 1041.39C981.999 1037.68 983.586 1034.95 985.174 1032.22C985.174 1032.22 985.758 1031.61 986.388 1030.83C988.48 1027.43 989.941 1024.79 991.402 1022.16C992.843 1020 994.283 1017.84 996.39 1014.65C999.904 1008.49 1002.75 1003.36 1005.6 998.228C1007.29 995.548 1008.97 992.867 1011.33 989.132C1013.26 985.478 1014.5 982.879 1015.75 980.281C1017.08 978.075 1018.42 975.869 1020.37 972.693C1021.79 969.897 1022.59 968.071 1023.39 966.245C1023.39 966.245 1023.89 965.685 1024.38 965.001C1025.1 963.638 1025.35 962.959 1025.6 962.281C1025.6 962.281 1026.06 961.808 1026.58 961.01C1028.32 957.684 1029.53 955.156 1030.75 952.628C1031.72 950.912 1032.7 949.196 1034.25 946.5C1035.77 943.095 1036.71 940.67 1037.64 938.245C1039.58 934.699 1041.52 931.153 1044.04 926.488C1046.18 921.658 1047.75 917.946 1049.31 914.234C1050.11 912.688 1050.9 911.143 1052.2 908.595C1053.03 906.48 1053.35 905.368 1053.68 904.256C1055.65 900.068 1057.62 895.881 1060.16 890.516C1063.83 881.023 1066.92 872.707 1070.02 864.392C1071.93 859.513 1073.84 854.634 1076.25 848.513C1077.75 843.61 1078.75 839.947 1079.76 836.285C1080.43 834.725 1081.1 833.164 1082.24 830.486C1082.97 827.662 1083.24 825.955 1083.51 824.249C1084.89 820.07 1086.27 815.891 1088 810.568C1088.52 808.357 1088.69 807.29 1088.85 806.224C1089.15 805.361 1089.45 804.499 1090.07 802.528C1090.56 800.355 1090.73 799.29 1090.89 798.224C1091.18 797.359 1091.47 796.493 1092.07 794.521C1092.51 792.35 1092.63 791.286 1092.76 790.222C1093.15 788.759 1093.54 787.296 1094.35 784.468C1096.78 770.145 1098.8 757.187 1100.81 744.228C1101.17 740.81 1101.54 737.393 1102.18 732.473C1102.49 727.392 1102.53 723.813 1102.57 720.233C1102.75 712.849 1102.92 705.464 1103.08 696.469C1102.59 691.999 1102.12 689.139 1101.65 686.279C1101.6 684.132 1101.56 681.983 1101.41 678.371C1100.74 674.701 1100.19 672.495 1099.63 670.289C1099.54 668.766 1099.45 667.242 1099.18 664.471C1098.54 662.246 1098.08 661.27 1097.61 660.294C1097.58 659.389 1097.55 658.483 1097.3 656.22C1095.28 649.997 1093.49 645.133 1091.69 640.269C1090.54 637.299 1089.4 634.329 1087.8 630.187C1085.92 627.145 1084.48 625.275 1083.04 623.405C1083.04 623.405 1082.9 623.17 1082.88 622.418C1080.57 618.442 1078.26 615.218 1075.96 611.995C1075.96 611.995 1075.82 612.273 1075.78 611.557C1074.36 609.405 1072.98 607.969 1071.59 606.533C1071.59 606.533 1071.61 606.361 1071.27 605.773C1067.93 602.712 1064.92 600.237 1061.91 597.763C1060.74 596.736 1059.57 595.708 1057.49 594.01C1054.3 592.315 1052 591.29 1049.71 590.266C1048.37 589.514 1047.03 588.762 1044.76 587.57C1043.13 586.967 1042.45 586.803 1041.76 586.639C1041.76 586.639 1040.91 586.189 1040.18 585.835C1038.98 585.041 1038.45 584.938 1037.86 585.172C1036.94 584.894 1036.02 584.616 1033.97 584.016C1031.77 583.591 1030.72 583.488 1029.66 583.386C1022.95 582.965 1016.24 582.545 1007.95 582.171C1005.47 582.365 1004.58 582.512 1003.69 582.658C1002.78 582.685 1001.88 582.711 999.831 582.896C997.694 583.484 996.711 583.913 995.728 584.343C994.828 584.35 993.929 584.358 991.688 584.53C987.338 585.829 984.329 586.963 981.321 588.097C980.465 588.204 979.609 588.311 977.719 588.681C976.072 589.152 975.632 589.551 975.365 590.14C975.365 590.14 974.485 590.158 973.393 590.403C965.15 594.409 957.999 598.17 950.848 601.932C950.848 601.932 950.188 601.939 949.327 602.224C946.828 603.738 945.191 604.967 943.553 606.196C943.174 606.306 942.796 606.417 941.643 606.905C940.424 607.501 940.193 607.858 940.175 608.354C938.339 609.507 936.502 610.66 933.563 612.433C923.174 620.817 913.889 628.581 904.604 636.345C902.54 638.14 900.476 639.935 897.694 642.365C896.442 643.287 896.201 643.733 896.253 644.337C895.628 644.811 895.004 645.285 893.539 646.505C890.809 649.499 888.919 651.747 887.029 653.996C882.778 658.458 878.527 662.92 873.643 668.099C872.506 669.132 872.3 669.583 872.39 670.169C871.153 671.553 869.917 672.937 867.823 675.225C861.198 683.475 855.43 690.821 849.661 698.167C848.943 697.241 848.225 696.314 847.339 694.289C846.684 692.213 846.197 691.235 845.711 690.257C845.175 687.373 844.639 684.489 843.854 680.291C842.967 677.407 842.331 675.836 841.694 674.265C841.467 672.602 841.24 670.938 840.746 668.279C840.416 666.801 840.15 666.492 839.681 666.358C838.952 663.468 838.222 660.578 837.177 656.373C835.844 652.779 834.827 650.5 833.81 648.221C831.582 641.853 829.355 635.485 826.773 628.232C826.311 626.912 826.032 626.68 825.582 626.654C825.582 626.654 825.686 626.445 825.578 625.743C824.238 622.774 823.007 620.508 821.775 618.241C820.134 614.512 818.493 610.784 816.211 606.047C815.045 604.436 814.52 603.832 813.996 603.228C813.739 602.335 813.482 601.441 812.692 599.606C810.702 596.493 809.246 594.322 807.79 592.152C807.79 592.152 807.7 592.253 807.663 591.534C803.001 584.596 798.376 578.378 793.751 572.159C793.694 571.484 793.393 570.943 792.236 569.812C791.055 568.597 790.489 568.105 789.922 567.614C783.599 561.325 777.277 555.036 770.061 547.935C767.365 546.13 765.56 545.137 763.756 544.144C763.298 543.615 762.84 543.086 761.751 542.112C760.801 541.226 760.388 541.105 759.88 541.302C755.53 539.037 751.18 536.773 745.983 534.139C744.798 533.367 744.439 533.348 744.06 533.71C743.124 533.273 742.189 532.835 739.909 531.923C734.268 530.75 729.97 530.052 725.673 529.353C722.883 529.073 720.093 528.793 716.003 528.568C714.702 528.623 713.788 528.942 713.788 528.942C712.87 528.913 711.951 528.883 709.773 528.923C706.922 529.456 705.332 529.921 703.741 530.386C702.771 530.467 701.801 530.548 699.779 530.883C698.16 531.279 697.77 531.623 697.556 532.167C697.556 532.167 697.684 532.264 696.95 532.165C693.337 533.355 690.459 534.643 687.581 535.93C684.59 537.377 681.6 538.824 677.741 540.747C676.413 541.459 676.198 541.835 676.229 542.351C674.883 543.199 673.537 544.047 671.278 545.544C668.947 547.595 667.529 548.996 666.111 550.398C664.845 551.426 663.579 552.455 661.467 554.281C658.24 558.108 655.859 561.139 653.478 564.169C652.981 564.597 652.484 565.025 651.305 566.234C649.396 569.189 648.17 571.364 646.944 573.538C646.944 573.538 647.28 573.502 646.552 573.864C643.26 578.918 640.696 583.609 638.132 588.3C636.071 592.501 634.011 596.701 631.427 602.088C629.968 606.281 629.031 609.288 628.094 612.295C627.248 614.47 626.402 616.645 625.095 620.04C624.173 623.536 623.713 625.811 623.253 628.087C621.115 637.479 618.977 646.872 616.486 657.73C615.77 662.919 615.408 666.643 615.045 670.366C614.539 674.415 614.032 678.465 613.282 684.029C613.035 688.471 613.032 691.396 613.029 694.322C612.846 709.699 612.663 725.075 612.519 741.985C612.938 745.769 613.318 748.02 613.697 750.271C613.731 753.054 613.764 755.838 613.842 760.16C614.383 764.085 614.879 766.472 615.375 768.859C615.503 772.126 615.631 775.394 615.839 780.195C616.547 784.564 617.176 787.399 617.804 790.233C617.987 793.037 618.17 795.84 618.494 799.926C619.01 802.224 619.384 803.241 619.759 804.258C621.495 814.467 623.231 824.677 625.265 836.329C626.32 840.595 627.076 843.419 627.833 846.243C628.501 849.761 629.169 853.278 630.002 858.072C630.641 860.335 631.116 861.322 631.59 862.309C632.615 867.265 633.641 872.22 635.156 878.241C635.802 879.608 635.959 879.911 636.116 880.214C637.08 884.514 638.045 888.815 639.482 894.321C640.417 896.171 640.88 896.815 641.344 897.459C641.561 899.295 641.778 901.131 642.263 904.207C643.432 907.774 644.333 910.102 645.234 912.431C645.362 913.308 645.489 914.184 645.9 916.357C647.505 921.195 648.826 924.737 650.147 928.28C651.474 932.682 652.8 937.084 654.649 942.762C656.696 948.112 658.219 952.186 659.742 956.26C663.681 967.156 667.621 978.052 671.897 990.157C672.828 992.298 673.423 993.229 674.017 994.16C675.378 997.945 676.738 1001.73 678.595 1006.69C679.912 1009.35 680.732 1010.83 681.551 1012.32C682.079 1013.97 682.607 1015.62 683.56 1018.38C684.455 1020.09 684.925 1020.7 685.396 1021.31C685.493 1022 685.59 1022.68 685.98 1024.48C688.067 1029.15 689.86 1032.72 691.653 1036.29C692.259 1037.94 692.864 1039.6 693.741 1042.48C691.907 1046.56 689.802 1049.4 687.697 1052.25C687.697 1052.25 687.705 1052.26 687.196 1052.39C686.291 1053.07 685.894 1053.61 685.497 1054.16C685.497 1054.16 685.674 1054.2 685.009 1054.22C682.867 1055.61 681.389 1056.97 679.911 1058.33C679.313 1058.65 678.715 1058.96 677.27 1059.93C673.963 1062.9 671.503 1065.22 669.044 1067.53C669.044 1067.53 669.143 1068.11 668.42 1068C663.645 1071.32 659.592 1074.76 655.54 1078.19C651.765 1081.08 647.989 1083.96 643.312 1087.58C641.347 1089.49 640.284 1090.67 639.22 1091.84C639.22 1091.84 639.597 1092.05 638.833 1092.04C636.539 1093.41 635.009 1094.79 633.48 1096.17C632.307 1096.98 631.134 1097.8 629.052 1099.3C625.083 1102.65 622.023 1105.31 618.962 1107.97C614.097 1111.74 609.231 1115.51 603.41 1119.9C600.6 1118.96 598.746 1117.41 596.891 1115.86C595.011 1111.11 593.131 1106.35 590.793 1100.31C586.784 1090.8 583.233 1082.56 579.682 1074.33C578.167 1069.93 576.653 1065.53 574.818 1060.24C574.38 1058.87 574.075 1058.65 573.584 1058.68C573.584 1058.68 573.687 1058.44 573.588 1057.71C572.223 1054.07 570.957 1051.17 569.692 1048.26C568.726 1045.24 567.761 1042.22 566.361 1038.03C565.2 1035.33 564.473 1033.79 563.745 1032.25C562.554 1028.65 561.362 1025.05 559.824 1020.11C555.604 1007.92 551.732 997.061 547.86 986.203C547.544 984.627 547.227 983.05 546.457 980.518C545.231 979.168 544.458 978.774 543.685 978.38Z" fill="#F58735"/>
<path d="M1853.68 910.435C1853.37 910.292 1853.06 910.149 1851.59 909.403C1841.51 909.108 1832.58 909.415 1823.66 909.722C1823.32 909.794 1822.97 909.867 1821.35 910.024C1815.87 910.793 1811.68 911.478 1807.5 912.163C1805.61 912.358 1803.73 912.553 1801.14 912.82C1801.14 916.914 1801.1 920.513 1801.15 924.109C1802.25 997.284 1803.36 1070.46 1804.45 1143.63C1804.48 1145.62 1804.3 1147.62 1802.94 1150.41C1774.6 1151.18 1747.54 1151.21 1720.48 1151.06C1716.93 1151.04 1713.39 1150.15 1709.85 1149.66C1709.65 1127 1709.62 1104.34 1709.2 1081.69C1707.95 1014.38 1706.54 947.067 1705.2 879.756C1703.21 780.12 1701.25 680.484 1699.23 580.849C1698.81 560.534 1698.15 540.224 1697.57 518.758C1706.75 514.355 1715.95 509.939 1725.87 505.159C1726.58 504.796 1727.09 504.169 1727.09 504.169C1731.03 502.707 1734.97 501.245 1739.77 499.394C1741.07 498.929 1741.33 498.668 1741.4 498.221C1741.83 498.199 1742.26 498.176 1743.73 497.878C1745.56 497.109 1746.35 496.615 1747.14 496.122C1753.58 494.106 1760.02 492.091 1767.65 489.774C1769.67 489.037 1770.52 488.601 1771.37 488.165C1774.39 487.476 1777.41 486.786 1781.65 485.833C1783.77 485.128 1784.67 484.686 1785.58 484.244C1786.55 484.187 1787.52 484.129 1789.69 483.868C1791.83 483.21 1792.78 482.757 1793.72 482.303C1795.3 482.178 1796.89 482.052 1799.7 481.728C1801.87 481.125 1802.8 480.72 1803.73 480.315C1809.89 479.565 1816.04 478.815 1823.74 477.941C1828.07 477.306 1830.86 476.793 1833.64 476.281C1847.69 476.376 1861.73 476.47 1877.29 476.774C1881.05 477.148 1883.29 477.313 1885.53 477.478C1894.34 479.129 1903.16 480.779 1913.21 482.761C1915.5 483.284 1916.56 483.476 1917.62 483.668C1923.94 485.804 1930.27 487.94 1937.72 490.476C1939.77 491.156 1940.7 491.437 1941.63 491.718C1949.84 495.84 1958.04 499.962 1967.15 504.635C1968.5 505.73 1969.07 505.941 1969.76 505.82C1969.76 505.82 1969.97 506.236 1970.23 506.418C1970.49 506.6 1971.23 506.545 1971.23 506.545C1976.32 510.311 1981.4 514.077 1987.31 518.498C1988.53 519.716 1989.08 519.968 1989.77 519.91C1989.77 519.91 1989.8 520.23 1990.09 520.598C1990.71 521.483 1991.18 521.721 1991.8 521.68C1991.8 521.68 1991.92 522.148 1992.25 522.485C1992.86 523.245 1993.25 523.434 1993.76 523.386C1993.76 523.386 1994.09 524.042 1994.4 524.332C1994.72 524.622 1995.26 524.522 1995.26 524.522C1999.48 528.935 2003.71 533.347 2008.48 538.361C2009.02 538.963 2009.8 539.284 2009.8 539.284C2009.8 539.284 2009.92 539.915 2010.27 540.404C2010.88 541.377 2011.28 541.619 2011.83 541.619C2011.83 541.619 2011.77 542.042 2012.17 542.666C2014 544.809 2015.43 546.327 2016.85 547.846C2017.16 548.473 2017.47 549.099 2018.21 550.41C2018.87 551.579 2019.25 551.842 2019.79 551.882C2027.96 564.993 2035.51 578.414 2040.57 594.195C2040.96 595.678 2041.23 596.022 2041.72 596.193C2043.72 609.18 2046.28 622.112 2047.57 635.17C2049 649.714 2046.15 664.072 2043.25 679.451C2042.53 681.053 2042.51 681.583 2042.85 682.133C2042.41 683.539 2041.96 684.946 2041.15 687.389C2040.33 688.972 2040.25 689.567 2040.52 690.212C2038.86 694.841 2037.19 699.47 2035.03 705.142C2034.39 706.871 2034.26 707.558 2034.12 708.244C2030.69 715.028 2027.26 721.812 2023.26 729.539C2022.49 731.107 2022.28 731.734 2022.08 732.36C2022.08 732.36 2021.78 732.451 2021.41 732.923C2020.64 734.359 2020.24 735.322 2019.83 736.285C2015.92 741.869 2012.02 747.452 2007.47 753.864C2006.28 755.11 2006.03 755.666 2006.1 756.36C2006.1 756.36 2005.76 756.412 2005.46 756.675C2004.74 757.244 2004.59 757.653 2004.72 758.164C2003.23 759.86 2001.73 761.556 1999.58 764.032C1998.37 765.187 1998.13 765.704 1998.18 766.364C1998.18 766.364 1997.79 766.427 1997.47 766.705C1996.72 767.271 1996.54 767.673 1996.63 768.189C1996.36 768.391 1996.09 768.593 1995.13 769.496C1994.11 770.843 1993.77 771.488 1993.42 772.134C1991.67 773.839 1989.91 775.545 1987.47 777.959C1986.19 779.044 1985.9 779.586 1985.92 780.293C1985.92 780.293 1985.73 780.296 1985.29 780.514C1984.25 781.099 1983.97 781.627 1983.98 782.319C1983.98 782.319 1983.75 782.314 1983.31 782.543C1982.29 783.13 1982 783.649 1982 784.33C1982 784.33 1981.76 784.318 1981.32 784.548C1980.29 785.133 1980 785.65 1980 786.33C1980 786.33 1979.76 786.318 1979.32 786.547C1978.29 787.13 1978 787.647 1977.99 788.328C1977.99 788.328 1977.76 788.315 1977.31 788.54C1976.28 789.12 1975.98 789.64 1975.98 790.325C1975.98 790.325 1975.75 790.313 1975.31 790.537C1974.28 791.114 1973.97 791.631 1973.94 792.312C1973.94 792.312 1973.74 792.294 1973.28 792.494C1972.21 793.053 1971.9 793.579 1971.86 794.274C1968.7 796.955 1965.53 799.636 1961.69 802.875C1960.62 803.619 1960.48 803.924 1960.6 804.348C1960.6 804.348 1960.02 804.446 1959.51 804.763C1958.49 805.356 1958.22 805.786 1958.19 806.369C1958.19 806.369 1957.83 806.313 1957.35 806.568C1956.29 807.143 1955.97 807.638 1955.91 808.307C1955.91 808.307 1955.74 808.28 1955.24 808.447C1954.37 809.144 1954 809.676 1953.63 810.207C1952.94 810.221 1952.37 810.491 1951.2 811.574C1949.76 812.902 1949.03 813.671 1948.31 814.44C1948.31 814.44 1947.89 814.388 1947.39 814.638C1946.32 815.19 1945.99 815.664 1945.91 816.311C1945.91 816.311 1945.75 816.275 1945.23 816.417C1944.34 817.091 1943.97 817.623 1943.59 818.155C1943.59 818.155 1943.7 818.262 1942.98 818.365C1937.34 822.046 1932.41 825.623 1925.91 830.347C1931.25 830.912 1934.49 831.254 1937.74 831.597C1948.63 834.075 1959.06 837.678 1969.31 844.516C1970.58 845.647 1971.11 845.869 1971.78 845.774C1971.78 845.774 1971.95 846.201 1972.23 846.441C1972.51 846.681 1972.94 846.996 1972.94 846.996L1973.47 846.885C1975.19 848.487 1976.91 850.09 1979.41 852.402C1980.56 853.685 1981.08 853.966 1981.76 853.957C1985.17 857.869 1988.58 861.782 1992.51 866.342C1993.16 867.377 1993.43 867.521 1993.83 867.42C1993.83 867.42 1993.84 867.943 1994.12 868.477C1994.69 869.579 1995.14 869.905 1995.77 869.99C1999.32 875.91 2002.86 881.83 2006.79 888.381C2007.17 889.012 2007.85 889.46 2007.85 889.46C2009.33 892.822 2010.8 896.184 2012.69 900.331C2013.16 901.534 2013.4 901.758 2013.82 901.786C2015.28 905.649 2016.73 909.513 2018.56 914.266C2019.02 915.638 2019.29 915.937 2019.77 916.052C2020.01 917.184 2020.24 918.317 2020.84 920.334C2021.2 921.626 2021.4 921.893 2021.79 922.02C2022.71 925.169 2023.64 928.319 2024.88 932.319C2025.21 933.58 2025.42 933.819 2025.82 933.886C2026 935.006 2026.17 936.126 2026.68 938.211C2027.04 939.662 2027.29 939.976 2027.75 940.119C2027.85 941.108 2027.95 942.096 2028.32 944.154C2028.71 945.822 2029.04 946.26 2029.58 946.538C2029.8 948.092 2030.01 949.645 2030.52 952.202C2030.87 953.758 2031.15 954.15 2031.65 954.381C2031.84 955.97 2032.03 957.559 2032.5 960.186C2032.84 961.79 2033.11 962.202 2033.62 962.461C2036.51 979.112 2039.67 995.721 2042.24 1012.42C2048.03 1049.95 2051.3 1087.72 2051.33 1126.66C2021.9 1128.58 1993.53 1129.52 1965.15 1130.46C1964.78 1107.88 1965.39 1085.23 1963.72 1062.75C1962.35 1044.29 1958.26 1026.04 1955.12 1006.57C1954.71 1004.81 1954.32 1004.58 1953.69 1004.76C1953.03 1001.74 1952.37 998.718 1951.42 994.468C1950.97 992.55 1950.56 992.066 1949.9 991.79C1949.26 989.654 1948.62 987.518 1947.67 984.272C1946.77 982.287 1946.19 981.411 1945.6 980.536C1942 973.371 1938.41 966.206 1934.22 958.109C1932.92 956.411 1932.21 955.645 1931.49 954.878C1931.49 954.878 1931.58 954.482 1931.34 953.968C1930.81 952.854 1930.33 952.505 1929.67 952.408C1929.4 951.804 1929.12 951.201 1928.29 949.864C1926.99 948.42 1926.24 947.711 1925.49 947.001C1925.49 947.001 1925.46 946.509 1925.16 946.053C1924.59 945.095 1924.16 944.837 1923.59 944.825C1923.59 944.825 1923.6 944.419 1923.32 943.974C1922.72 942.974 1922.24 942.692 1921.6 942.685C1921.6 942.685 1921.64 942.358 1921.39 941.915C1920.8 940.896 1920.29 940.616 1919.62 940.631C1919.62 940.631 1919.64 940.332 1919.39 939.9C1918.8 938.895 1918.29 938.622 1917.62 938.648C1917.62 938.648 1917.63 938.332 1917.37 937.92C1916.76 936.958 1916.26 936.709 1915.61 936.76C1915.61 936.76 1915.57 936.353 1915.27 935.98C1914.66 935.102 1914.21 934.889 1913.62 934.967C1913.62 934.967 1913.47 934.496 1912.98 934.017C1911.6 933.033 1910.72 932.528 1909.83 932.024C1909.41 931.512 1909 931 1907.93 929.95C1906.86 928.855 1906.32 928.638 1905.64 928.762C1905.64 928.762 1905.5 928.37 1905 927.969C1903.59 927.143 1902.67 926.718 1901.74 926.293C1895.56 921.091 1888.36 918.361 1879.69 916.344C1877.89 915.032 1876.8 914.823 1875.7 914.614C1875.4 914.464 1875.09 914.315 1873.79 913.772C1871.09 913.111 1869.4 912.844 1867.7 912.577C1867.37 912.445 1867.03 912.313 1865.52 911.845C1860.79 911.151 1857.24 910.793 1853.68 910.435ZM1801.49 785.325C1819.18 778.258 1835.98 769.515 1851.47 758.394C1878.53 738.966 1900.12 715.001 1912.54 683.623C1919.77 665.359 1923.02 646.569 1919.7 626.902C1915.37 601.338 1897.87 584.091 1874.11 582.612C1862.59 581.894 1851.63 584.767 1841.07 589.085C1824.24 595.965 1809.77 606.563 1795.68 617.85C1790.69 621.846 1789.09 626.079 1789.44 632.353C1791.3 666.61 1792.74 700.89 1794.35 735.161C1795.02 749.467 1795.58 763.783 1796.59 778.067C1796.78 780.744 1794.69 785.173 1801.49 785.325Z" fill="#3F4D4E"/>
<path d="M1515.71 518.082C1518.36 536.476 1521.11 554.857 1523.64 573.266C1529.48 615.651 1535.28 658.04 1540.97 700.445C1544.02 723.18 1546.66 745.969 1549.73 768.701C1553.86 799.324 1558.34 829.899 1562.47 860.523C1568.31 903.949 1573.91 947.41 1579.73 990.839C1582.42 1010.91 1585.51 1030.94 1588.22 1051.01C1590.85 1070.4 1593.12 1089.85 1595.76 1109.24C1597.47 1121.73 1599.57 1134.16 1601.02 1147.69C1599.01 1149.27 1597.47 1149.77 1595.02 1150.15C1587.34 1150.78 1580.56 1151.53 1573.79 1152.28C1573.79 1152.28 1573.73 1152.23 1572.81 1152.11C1564.54 1152.76 1557.18 1153.53 1549.83 1154.31C1549.83 1154.31 1549.75 1154.23 1548.82 1154.13C1540.56 1154.79 1533.22 1155.56 1525.87 1156.33C1525.87 1156.33 1525.77 1156.24 1524.85 1156.15C1517.15 1156.78 1510.38 1157.51 1503.61 1158.23C1502.41 1158.66 1501.22 1159.09 1498.72 1159.99C1489.62 1080.1 1480.54 1000.51 1471.34 919.725C1446.49 919.725 1422.01 919.725 1395.81 919.716C1391.29 919.858 1388.49 920.009 1385.7 920.159C1380.05 918.459 1379.74 922.336 1379.1 927.262C1378.41 928.897 1378.36 929.484 1378.66 930.1C1378.19 932.223 1377.71 934.345 1376.83 937.782C1376.26 940.82 1376.09 942.544 1375.93 944.269C1371.9 962.685 1367.78 981.081 1363.88 999.522C1359.14 1021.89 1354.58 1044.29 1349.74 1067.95C1349.6 1069.57 1349.66 1069.92 1349.72 1070.27C1348.93 1073.58 1348.14 1076.89 1347.03 1081.25C1346.32 1082.91 1346.29 1083.53 1346.6 1084.17C1341.83 1106.46 1337.06 1128.74 1331.06 1151.74C1300.12 1152.4 1270.41 1152.4 1240.7 1152.24C1237.17 1152.22 1233.64 1151.36 1230.11 1150.88C1236 1126.19 1242.36 1101.59 1247.58 1076.75C1249.66 1066.85 1252.87 1057.28 1254.72 1047.34C1257.58 1031.9 1260.64 1016.5 1264.01 1001.16C1265.56 994.144 1268.26 987.385 1270.02 980.4C1271.06 976.27 1270.98 971.865 1271.93 967.706C1272.86 963.669 1274.47 959.788 1275.99 954.844C1276.47 953.415 1276.4 953.04 1275.99 952.725C1277.32 947.476 1278.69 942.239 1279.96 936.977C1282.61 925.997 1285.2 915.004 1288.07 902.971C1288.63 901.443 1288.6 900.991 1288.21 900.567C1290.79 888.374 1293.19 876.138 1296.03 864.002C1297.8 856.413 1300.89 849.092 1302.21 841.447C1305.1 824.704 1310.99 808.696 1314.05 790.931C1314.62 789.431 1314.58 788.988 1314.2 788.572C1316.14 778.925 1317.86 769.226 1320.1 759.648C1321.65 753.017 1323.91 746.551 1326.09 738.978C1326.64 737.464 1326.61 737.01 1326.23 736.581C1329.45 721.678 1332.6 706.755 1335.97 691.885C1336.89 687.826 1338.5 683.925 1340.04 678.925C1340.58 677.429 1340.54 676.998 1340.14 676.605C1340.66 675.019 1341.19 673.433 1341.93 670.824C1342.42 669.379 1342.35 669.031 1341.92 668.759C1342.26 668.189 1342.77 667.655 1342.9 667.043C1345.96 651.768 1348.77 636.437 1352.11 621.224C1353.71 613.946 1357.11 607.018 1358.3 599.704C1360.51 586.132 1365.44 573.258 1367.93 558.769C1368.41 557.376 1368.34 557.029 1367.93 556.753C1370.94 544.947 1373.96 533.141 1377.31 520.056C1390.64 520.056 1404.23 520.056 1419.67 520.161C1440.24 519.607 1458.96 518.949 1477.68 518.291C1487.78 518.195 1497.87 518.1 1509.61 518C1512.74 518.025 1514.23 518.053 1515.71 518.082ZM1403.96 777.442C1398.34 795.738 1392.72 814.035 1387.13 832.255C1418.11 832.255 1447.8 832.255 1478.36 832.255C1465.43 776.306 1452.81 721.697 1440.19 667.087C1439.62 667.171 1439.04 667.256 1438.47 667.34C1427.12 703.532 1415.78 739.723 1403.96 777.442Z" fill="#404D4E"/>
<path d="M401.697 940.272C404.587 952.595 407.477 964.919 410.67 978.238C410.996 979.731 411.244 980.062 411.716 980.225C413.271 987.252 414.826 994.278 416.704 1002.27C417.04 1003.71 417.275 1004.03 417.73 1004.18C419.284 1011.21 420.838 1018.24 422.713 1026.25C423.042 1027.7 423.277 1028.02 423.737 1028.17C423.969 1029.88 424.201 1031.6 424.755 1034.26C425.081 1035.68 425.307 1035.99 425.755 1036.13C425.974 1037.84 426.194 1039.55 426.727 1042.24C427.05 1043.69 427.284 1044.01 427.742 1044.16C429.331 1051.23 430.92 1058.29 432.816 1066.29C433.117 1067.66 433.33 1067.94 433.761 1068.06C434.471 1072.24 435.181 1076.41 435.075 1081.42C432.051 1082.9 429.844 1083.56 427.637 1084.23C424.83 1084.83 422.024 1085.43 417.743 1086.1C413.501 1086.91 410.734 1087.65 407.967 1088.38C407.967 1088.38 407.823 1088.27 407.064 1088.26C404.07 1088.9 401.835 1089.56 399.599 1090.22C399.599 1090.22 398.62 1090.09 397.469 1090.19C394.116 1090.95 391.914 1091.61 389.711 1092.27C389.365 1092.23 389.019 1092.19 387.503 1092.25C384.168 1093 382.004 1093.66 379.839 1094.32C379.839 1094.32 379.752 1094.24 378.996 1094.2C375.472 1094.9 372.704 1095.63 369.935 1096.37C369.935 1096.37 369.81 1096.28 369.055 1096.25C366.052 1096.88 363.805 1097.55 361.558 1098.21C361.558 1098.21 360.601 1098.07 359.456 1098.17C356.08 1098.92 353.849 1099.58 351.619 1100.24C348.819 1100.83 346.019 1101.42 341.747 1102.08C337.515 1102.89 334.755 1103.64 331.995 1104.38C331.995 1104.38 331.833 1104.26 330.971 1104.25C327.966 1104.29 325.823 1104.34 323.681 1104.39C323.612 1104 323.544 1103.61 323.249 1102.25C322.852 1100.63 322.462 1100.17 321.853 1099.89C321.105 1097.09 320.357 1094.3 319.332 1090.38C318.888 1088.6 318.494 1088.14 317.874 1087.86C317.776 1087.01 317.679 1086.17 317.321 1084.29C316.894 1082.6 316.5 1082.13 315.877 1081.85C315.778 1081.01 315.678 1080.17 315.331 1078.29C314.92 1076.58 314.521 1076.1 313.889 1075.82C313.785 1074.99 313.681 1074.15 313.327 1072.28C312.922 1070.57 312.529 1070.09 311.898 1069.8C311.798 1068.97 311.697 1068.13 311.344 1066.27C310.926 1064.56 310.524 1064.08 309.885 1063.81C309.794 1062.97 309.702 1062.13 309.352 1060.26C308.931 1058.55 308.529 1058.08 307.89 1057.8C307.797 1056.96 307.705 1056.13 307.357 1054.26C306.94 1052.54 306.539 1052.06 305.898 1051.78C305.161 1049.03 304.424 1046.28 303.407 1042.38C302.971 1040.52 302.565 1040.03 301.909 1039.75C301.822 1038.93 301.736 1038.11 301.403 1036.25C301.003 1034.5 300.591 1034 299.921 1033.72C299.829 1032.91 299.737 1032.09 299.4 1030.24C298.749 1028.69 298.343 1028.18 297.937 1027.68C297.207 1024.94 296.476 1022.21 295.469 1018.33C294.779 1016.67 294.366 1016.15 293.952 1015.63C293.952 1015.63 294.047 1014.87 293.862 1013.92C293.105 1011.85 292.533 1010.74 291.961 1009.63C291.233 1006.91 290.506 1004.2 289.523 1000.31C288.728 998.22 288.19 997.304 287.651 996.389C287.04 994.097 286.428 991.806 285.539 988.339C284.836 986.615 284.411 986.067 283.987 985.519C283.987 985.519 284.066 984.817 283.44 983.79C282.161 982.643 281.507 982.409 280.857 982.421C238.676 983.143 196.495 983.869 154.316 984.694C152.886 984.722 151.476 985.765 150.057 986.335C149.2 988.363 148.342 990.391 147.106 993.388C146.273 994.919 146.18 995.536 146.449 996.208C146.148 997.016 145.847 997.824 145.201 999.555C144.413 1000.99 144.326 1001.56 144.593 1002.18C142.874 1007.51 141.154 1012.84 139.053 1019.24C138.227 1020.89 138.139 1021.53 138.407 1022.21C138.115 1023.01 137.823 1023.82 137.181 1025.54C136.391 1026.98 136.303 1027.55 136.566 1028.18C135.497 1031.45 134.428 1034.72 132.896 1039.2C132.233 1041.69 132.032 1042.98 131.831 1044.26C131.831 1044.26 131.376 1044.9 131.017 1045.6C130.566 1046.93 130.475 1047.57 130.384 1048.21C130.095 1049.01 129.807 1049.81 129.166 1051.53C128.37 1052.97 128.281 1053.55 128.548 1054.19C128.228 1055.02 127.908 1055.85 127.259 1057.61C126.515 1059.03 126.446 1059.57 126.723 1060.14C125.64 1063.48 124.558 1066.81 123.034 1071.2C122.506 1072.92 122.418 1073.58 122.331 1074.24C122.052 1075.02 121.773 1075.79 121.115 1077.48C120.295 1078.96 120.211 1079.56 120.487 1080.22C118.815 1085.53 117.144 1090.85 115.056 1097.22C114.543 1098.92 114.446 1099.57 114.349 1100.22C112.474 1105.45 110.598 1110.68 107.453 1116.75C83.6301 1118.41 61.0817 1119.37 38.5241 1119.99C25.6227 1120.35 12.7063 1120.16 0 1119.57C0.660095 1117.22 1.11685 1115.5 1.79794 1113.69C2.02228 1113.61 1.81366 1112.87 2.3595 1112.15C3.13995 1110.28 3.37457 1109.11 3.85989 1107.82C4.41541 1107.32 4.3718 1106.99 4.51508 1106.05C5.24695 1104.28 5.44348 1103.17 5.90939 1101.91C6.4985 1101.36 6.4761 1100.98 6.62595 1100.02C8.00552 1096.39 8.87091 1093.37 10.067 1090.12C10.8075 1089.46 10.8806 1088.96 11.017 1087.81C11.553 1086.23 11.6893 1085.27 12.271 1083.94C12.95 1082.46 13.1837 1081.35 13.7886 1079.62C15.3143 1075.34 16.4688 1071.67 17.8867 1067.86C18.4695 1067.33 18.4361 1066.98 18.566 1066.02C19.2755 1064.29 19.4693 1063.21 19.9474 1061.96C20.5707 1061.38 20.5697 1060.97 20.7306 1059.93C22.6733 1054.77 24.114 1050.24 25.7723 1045.63C25.9901 1045.55 25.7582 1044.9 26.2833 1044.16C27.0601 1042.24 27.3117 1041.06 27.9066 1039.52C28.4929 1038.23 28.736 1037.3 29.2723 1035.8C29.5825 1034.81 29.5993 1034.39 29.8736 1033.83C30.4408 1033.31 30.4001 1032.97 30.5395 1031.98C31.9509 1028.06 32.8318 1024.82 34.0332 1021.56C34.7799 1021.2 34.8142 1020.82 34.8887 1019.82C35.4599 1018.26 35.5989 1017.3 36.0791 1016.12C36.8527 1015.45 36.9399 1014.95 37.0845 1013.67C38.9076 1008.39 40.3282 1003.81 41.959 999.237C42.169 999.236 41.8867 998.769 42.4247 998.084C43.1832 996.266 43.4038 995.135 43.8877 993.862C44.4701 993.335 44.4377 992.983 44.5747 992.015C45.2836 990.283 45.4714 989.199 45.9408 987.948C46.5572 987.375 46.5463 986.977 46.707 985.905C49.3403 978.751 51.4563 972.28 53.8037 965.709C54.0352 965.609 53.8421 964.803 54.3823 964.092C55.8608 960.052 56.7991 956.722 57.9869 953.381C58.2365 953.37 58.115 952.579 58.6312 951.962C59.3256 950.294 59.5038 949.244 59.9804 948.008C60.6463 947.401 60.66 946.969 60.7842 945.918C61.4073 944.312 61.5662 943.312 62.0448 942.1C62.7557 941.447 62.8111 940.968 62.9727 939.803C64.8033 934.709 66.1919 930.263 67.8108 925.721C68.041 925.624 67.8411 924.839 68.3807 924.128C69.1499 922.261 69.3793 921.103 69.861 919.818C70.4221 919.317 70.3778 918.991 70.5098 918.056C71.2447 916.3 71.45 915.201 71.9331 913.937C72.5442 913.37 72.5357 912.976 72.6882 911.971C73.3581 910.31 73.5254 909.268 73.9928 908.032C74.6556 907.411 74.6783 906.968 74.8199 905.91C75.4323 904.327 75.586 903.341 76.0761 902.134C76.8303 901.465 76.9109 900.963 77.0662 899.74C121.313 774.254 165.149 649.436 209.142 524.17C238.206 523.445 266.732 522.733 295.61 522.012C297.529 528.653 299.25 534.609 300.971 540.564C303.764 552.082 306.514 563.611 309.362 575.116C313.006 589.834 316.729 604.532 320.73 620.223C321.041 621.696 321.271 622.023 321.731 622.188C326.65 642.52 331.569 662.852 336.78 684.176C337.065 685.655 337.289 685.983 337.745 686.154C338.669 690.513 339.592 694.872 340.803 700.209C341.072 701.67 341.28 702.02 341.712 702.236C343.323 709.231 344.933 716.226 346.828 724.206C347.093 725.665 347.296 726.007 347.722 726.215C349.346 733.221 350.97 740.227 352.867 748.202C353.127 749.631 353.339 749.933 353.776 750.077C354.73 754.476 355.685 758.874 356.903 764.237C357.137 765.655 357.329 765.979 357.741 766.174C359.389 773.229 361.037 780.284 362.947 788.265C363.196 789.611 363.396 789.867 363.808 789.96C365.231 796.303 366.655 802.646 368.334 810.187C369.004 812.231 369.419 813.078 369.834 813.925C371.255 820.276 372.677 826.628 374.363 834.103C374.729 835.821 375.05 836.255 375.59 836.527C376.44 840.699 377.29 844.871 378.402 850.131C378.76 851.805 379.074 852.23 379.604 852.495C381.139 859.38 382.673 866.265 384.517 874.2C384.875 875.793 385.151 876.173 385.652 876.391C387.174 883.31 388.696 890.229 390.523 898.192C390.889 899.775 391.169 900.147 391.67 900.354C391.866 901.985 392.062 903.617 392.573 906.242C392.929 907.762 393.194 908.122 393.684 908.317C393.874 909.948 394.063 911.58 394.55 914.224C394.903 915.769 395.179 916.137 395.675 916.341C397.211 923.305 398.746 930.27 400.609 938.236C400.965 939.747 401.219 940.092 401.697 940.272ZM224.807 734.218C209.428 773.309 194.05 812.399 178.223 852.631C211.758 853.63 243.471 854.576 276.335 855.556C262.836 805.807 249.748 757.57 236.659 709.333C235.989 709.282 235.32 709.23 234.65 709.178C231.569 717.051 228.487 724.924 224.807 734.218Z" fill="#3F4D4E"/>
<path d="M1007.47 126.182C1013.96 119.839 1020.46 113.497 1027.8 106.51C1029.08 105.357 1029.51 104.848 1029.93 104.339C1030.96 103.929 1031.98 103.519 1033.95 102.595C1035.51 101.575 1036.12 101.069 1036.73 100.563C1039.86 100.5 1042.98 100.436 1047.25 100.817C1049.49 101.607 1050.59 101.953 1051.69 102.299C1051.69 102.299 1051.7 102.263 1052.01 102.807C1054.09 104.381 1055.86 105.41 1057.64 106.44C1061.24 110.838 1064.83 115.236 1069.11 120.634C1071.69 124.538 1073.6 127.44 1075.51 130.343C1076.14 131.958 1076.76 133.573 1077.9 136.374C1080.13 141.141 1081.86 144.723 1083.59 148.304C1084.69 151.902 1085.79 155.5 1087.21 160.394C1088.27 163.879 1089 166.068 1089.74 168.257C1091.27 182.11 1093.61 195.936 1094.08 209.825C1094.46 221.382 1092.63 233.012 1091.43 245.859C1090.95 248.173 1090.82 249.239 1090.68 250.306C1090.33 251.782 1089.97 253.259 1089.2 255.995C1087.59 261.634 1086.4 266.015 1085.21 270.395C1082.08 277.105 1078.94 283.814 1075.12 291.607C1070.19 298.545 1065.94 304.4 1061.69 310.255C1059.63 312.064 1057.57 313.872 1054.57 316.315C1052.29 317.966 1050.95 318.983 1049.6 319.999C1047.96 320.698 1046.32 321.397 1043.69 322.515C1042.12 323.171 1041.73 323.596 1041.55 324.21C1040.07 324.485 1038.58 324.76 1035.78 325.349C1032.19 326.176 1029.91 326.69 1027.64 327.203C1025.53 327.149 1023.43 327.095 1019.81 326.916C1012.75 325.445 1007.21 324.1 1001.66 322.755C990.031 316.554 980.729 307.832 972.901 295.657C969.935 289.76 967.628 285.006 965.322 280.252C964.724 278.019 964.126 275.786 963.309 272.38C962.61 270.232 962.13 269.257 961.65 268.282C961.464 266.114 961.278 263.947 960.946 260.531C960.438 258.272 960.077 257.264 959.716 256.255C960.433 243.504 961.149 230.752 962.241 216.755C962.781 214.418 962.945 213.326 963.109 212.235C963.382 211.382 963.655 210.529 964.332 208.513C965.05 205.654 965.364 203.957 965.678 202.261C967.652 197.408 969.627 192.554 972.086 186.616C972.862 184.438 973.153 183.344 973.444 182.249C973.444 182.249 973.937 181.659 974.495 180.837C977.15 175.424 979.247 170.833 981.345 166.243C987.353 156.74 993.361 147.236 1000.13 136.748C1003.08 132.569 1005.28 129.375 1007.47 126.182Z" fill="#F48736"/>
<path d="M463.502 366.269C463.587 359.539 463.671 352.81 463.884 344.395C464.571 339.452 465.09 336.186 465.693 332.935C469.344 313.257 475.544 294.487 486.574 277.647C494.503 265.542 502.527 264.09 513.781 273.093C520.165 278.2 525.519 284.594 531.485 291.08C534.227 295.523 536.821 299.295 539.437 303.665C540.241 305.59 541.024 306.917 541.862 308.841C542.427 310.042 542.936 310.644 543.386 311.542C543.328 311.837 543.755 312.262 543.786 312.977C545.529 317.975 547.241 322.258 549.054 327.36C553.354 343.259 554.128 358.665 553.12 374.828C550.907 383.01 549.117 390.565 546.824 398.55C542.138 404.386 537.955 409.792 533.185 415.344C530.604 416.966 528.61 418.441 525.956 419.869C524.044 420.201 522.79 420.581 520.977 420.87C519.402 421.227 518.387 421.676 516.947 422.033C516.522 421.941 515.708 422.248 515.044 422.105C513.487 422.069 512.594 422.176 511.122 422.111C509.747 421.99 508.951 422.04 507.597 421.687C505.258 420.978 503.475 420.672 501.673 420.306C501.654 420.247 501.55 420.316 501.394 420.037C500.875 419.393 500.489 419.368 499.474 419.236C495.012 416.681 491.158 414.574 487.029 411.869C481.851 405.39 476.948 399.508 472.005 393.108C471.423 391.735 470.881 390.88 470.252 389.378C469.374 387.229 468.582 385.728 467.752 383.457C466.31 377.215 464.906 371.742 463.502 366.269Z" fill="#F48736"/>
<path d="M1179.94 342.384C1181.69 340.676 1183.45 338.968 1186.03 336.431C1190.71 331.683 1194.56 327.765 1198.42 323.847C1202.58 321.004 1206.75 318.162 1212.03 314.723C1219.34 311.092 1225.55 309.327 1231.82 313.927C1241.64 326.792 1245.52 341.631 1245.96 357.499C1246.17 365.096 1245.79 372.71 1245.35 381.526C1244.68 383.305 1244.77 383.797 1245.29 384.212C1244.72 386.931 1244.14 389.65 1243.29 393.444C1242.63 394.998 1242.63 395.475 1243.01 395.947C1240.61 402.215 1238.21 408.483 1235.23 415.831C1234.31 418.015 1233.96 419.119 1233.61 420.223C1232.42 421.915 1231.24 423.606 1229.53 426.03C1228.53 427.106 1228.38 427.562 1228.56 428.13C1227.99 428.87 1227.43 429.61 1226.08 431.296C1223.28 434.853 1221.27 437.463 1219.25 440.074C1217.68 441.341 1216.1 442.608 1213.5 444.533C1208.25 447.617 1204.01 450.042 1199.77 452.467C1198.14 452.602 1196.5 452.737 1193.47 452.934C1190.78 453.206 1189.48 453.416 1188.18 453.626C1185.98 453.159 1183.79 452.692 1180.29 451.727C1175.9 449.672 1172.79 448.115 1169.68 446.557C1169.68 446.557 1169.26 446.037 1168.64 445.35C1164.64 440.404 1161.25 436.144 1157.86 431.883C1151.73 415.758 1151.92 399.407 1156.52 381.736C1157.08 379.811 1157.25 379.064 1157.41 378.316C1158.2 376.76 1158.98 375.204 1160.33 372.667C1161.23 370.591 1161.57 369.497 1161.91 368.402C1161.91 368.402 1161.76 368.264 1162.31 368.007C1163.7 365.917 1164.53 364.083 1165.36 362.249C1167.48 359.4 1169.6 356.551 1172.44 352.745C1173.66 350.703 1174.17 349.619 1174.68 348.534C1175.15 348.321 1175.52 347.994 1176.5 346.971C1178.12 345.056 1179.03 343.72 1179.94 342.384Z" fill="#F48736"/>
<path d="M1041.97 15.0876C1044.44 11.5948 1046.72 8.77652 1049.1 6.04962C1056.52 -2.43219 1059.86 -2.15397 1066.76 7.89091C1071.07 23.3404 1070.74 38.412 1068.67 53.5927C1067.5 62.2027 1063.03 67.4216 1053.14 69.2183C1049.8 69.1856 1047.86 69.1366 1045.92 69.0875C1045 68.8113 1044.08 68.5351 1042.05 67.8277C1039.85 67.0359 1038.77 66.6752 1037.69 66.3146C1036.07 64.5161 1034.44 62.7177 1032.3 59.8772C1031.08 56.644 1030.39 54.4528 1029.69 52.2616C1029.83 51.3892 1029.97 50.5168 1030.39 48.4724C1030.84 45.6084 1031 43.9164 1031.16 42.2245C1034.71 33.4176 1038.27 24.6108 1041.97 15.0876Z" fill="#F3893A"/>
<path d="M1237.6 295.99C1234.14 295.463 1230.68 294.936 1226.13 293.825C1223.98 292.802 1222.91 292.363 1221.85 291.925C1215.23 285.589 1213.28 278.305 1217.94 268.586C1220.73 263.655 1222.91 259.935 1225.1 256.214C1225.1 256.214 1225.72 255.622 1226.37 254.879C1228.57 252.174 1230.12 250.211 1231.68 248.249C1235.45 245.292 1239.23 242.335 1244.11 238.684C1248.68 237.501 1252.14 237.011 1255.6 236.522C1256.28 238.048 1256.96 239.575 1257.79 242.436C1258.21 245.281 1258.47 246.792 1258.73 248.303C1258.3 252.345 1257.87 256.386 1257.04 261.696C1256.51 264.074 1256.38 265.184 1256.25 266.293C1253.35 273.519 1250.46 280.744 1246.91 289.047C1243.36 292.079 1240.48 294.035 1237.6 295.99Z" fill="#F3893A"/>
<path d="M687.7 294.312C687.556 288.888 687.411 283.464 687.156 276.553C686.597 273.464 686.148 271.861 685.699 270.259C685.667 268.119 685.634 265.98 685.551 262.261C685.257 258.532 685.013 256.382 684.769 254.232C684.644 250.76 684.519 247.288 684.514 242.474C684.446 238.838 684.259 236.544 684.072 234.249C684.653 229.52 685.235 224.791 686.14 218.761C686.565 216.381 686.667 215.302 686.768 214.222C688.375 208.078 689.981 201.933 692.016 194.519C692.781 191.584 693.118 189.918 693.456 188.251C700.014 174.077 706.022 159.612 713.343 145.844C717.503 138.021 723.495 131.076 729.245 124.225C734.521 117.939 741.564 116.11 749.929 117.058C785.634 121.107 801.884 144.457 803.505 178.084C804.965 208.364 796.758 236.743 784.66 264.098C776.41 282.751 766.321 300.388 752.218 315.344C743.223 324.883 733.557 333.585 717.976 333.755C713.688 332.343 710.737 331.219 707.785 330.095C706.107 328.347 704.429 326.599 702.128 323.937C700.265 321.374 699.024 319.725 697.783 318.076C696.926 315.761 696.069 313.446 694.885 310.226C694.448 308.836 694.149 308.541 693.661 308.438C692.685 304.772 691.708 301.106 690.338 296.518C689.196 295.168 688.448 294.74 687.7 294.312Z" fill="#F48736"/>
<path d="M493.214 243.448C479.516 241.459 475.717 238.234 474.386 226.411C472.874 212.975 474.934 199.921 481.077 187.768C485.064 179.879 490.12 179.041 495.248 186.163C499.435 191.978 502.387 198.828 505.043 205.552C506.966 210.422 507.742 215.797 508.622 221.016C510.885 234.429 507.548 239.384 493.214 243.448Z" fill="#F3893A"/>
<path d="M717.927 57.1418C720.172 45.1097 723.712 34.448 729.802 24.8081C736.205 14.6728 742.53 14.6228 747.587 25.6536C751.385 33.9388 753.511 43.1507 755.242 52.1687C756.476 58.5909 756.091 65.3831 755.936 71.9986C755.708 81.7375 750.519 87.1912 740.878 88.4849C729.368 90.0294 715.986 85.0041 717.386 67.954C717.657 64.6541 717.69 61.3347 717.927 57.1418Z" fill="#F3893A"/>
</svg>
