<svg width="100" height="100" viewBox="0 0 2052 1276" fill="none" xmlns="http://www.w3.org/2000/svg">
<path d="M546.685 978.38C546.794 977.466 546.903 976.552 546.988 974.242C546.35 971.587 545.737 970.327 545.123 969.067C544.406 965.863 543.689 962.66 542.714 958.2C541.844 955.463 541.231 953.983 540.619 952.503C540.604 952.092 540.589 951.682 540.357 950.212C539.743 948.627 539.346 948.101 538.95 947.575C538.918 946.823 538.886 946.071 538.675 944.16C537.675 940.621 536.854 938.241 536.032 935.861C534.866 931.164 533.699 926.467 532.301 920.489C531.562 918.244 531.055 917.28 530.548 916.316C529.62 911.9 528.691 907.484 527.523 902.176C527.248 900.858 527.016 900.626 526.587 900.591C526.587 900.591 526.692 900.433 526.701 899.676C526.004 896.712 525.296 894.505 524.589 892.297C523.843 888.119 523.097 883.941 522.102 878.498C521.417 876.26 520.982 875.288 520.546 874.315C520.496 873.398 520.447 872.481 520.242 870.392C519.632 868.231 519.177 867.242 518.723 866.253C518.461 863.956 518.199 861.659 517.724 858.306C517.466 856.744 517.206 856.4 516.73 856.218C516.481 853.944 516.232 851.67 515.778 848.328C515.506 846.737 515.225 846.385 514.729 846.204C514.541 844.06 514.354 841.915 513.993 838.433C513.302 835.516 512.786 833.936 512.269 832.357C512.181 830.687 512.094 829.017 511.87 826.171C511.357 824.18 510.98 823.365 510.603 822.551C510.284 819.479 509.964 816.408 509.495 812.274C509.357 810.749 509.147 810.431 508.716 810.259C508.649 808.753 508.582 807.248 508.402 804.338C507.74 800.716 507.191 798.498 506.642 796.281C506.455 793.47 506.268 790.659 505.96 786.476C505.439 783.497 505.038 781.891 504.637 780.285C504.631 778.767 504.624 777.25 504.521 774.202C503.833 768.541 503.241 764.411 502.65 760.28C502.401 754.736 502.153 749.192 501.858 742.167C501.435 738.547 501.058 736.407 500.681 734.267C500.775 708.887 500.869 683.507 501.182 656.661C501.397 653.54 501.394 651.885 501.39 650.229C501.871 645.496 502.351 640.763 503.048 634.693C503.184 632.317 503.104 631.278 503.024 630.238C503.598 626.818 504.173 623.398 505.062 618.469C505.746 613.389 506.116 609.818 506.487 606.247C508.574 596.123 510.662 585.999 513.144 574.685C513.68 572.406 513.821 571.317 513.962 570.228C516.815 560.733 519.669 551.237 522.926 540.576C523.567 538.35 523.805 537.29 524.042 536.23C524.958 534.065 525.874 531.9 527.291 528.595C528.569 525.049 529.346 522.643 530.123 520.236C533.657 512.873 537.191 505.51 541.337 497.015C543.528 492.675 545.107 489.466 546.686 486.258C548.056 484.235 549.426 482.212 551.452 479.173C555.625 472.854 559.141 467.55 562.657 462.247C563.187 461.788 563.718 461.329 564.97 460.136C566.805 457.733 567.919 456.065 569.033 454.396C572.03 451.277 575.028 448.158 578.876 444.191C582.677 440.302 585.629 437.26 588.581 434.218C591.666 431.823 594.75 429.427 598.797 426.344C601.614 424.112 603.468 422.568 605.323 421.024C605.323 421.024 605.237 420.568 605.86 420.655C607.264 420.019 608.045 419.296 608.826 418.573C612.446 416.656 616.066 414.739 620.822 412.333C623.748 410.736 625.539 409.627 627.33 408.518C630.759 407.255 634.188 405.992 638.769 404.338C640.528 403.493 641.137 403.038 641.745 402.583C648.228 401.194 654.711 399.804 662.812 398.271C677.866 397.969 691.303 397.811 704.74 397.653C714.129 399.989 723.519 402.325 734.096 405.193C736.414 405.933 737.544 406.141 738.674 406.348C740.117 407.033 741.56 407.719 744.021 408.925C746.249 409.765 747.459 410.085 748.668 410.405C755.554 414.244 762.439 418.083 770.342 422.663C775.82 426.207 780.281 429.008 784.741 431.81C784.741 431.81 785.228 432.382 785.907 432.934C787.271 433.818 787.955 434.15 788.64 434.482C789.973 435.762 791.306 437.042 793.523 439.017C795.794 440.635 797.181 441.559 798.568 442.482C798.568 442.482 798.677 442.308 798.828 442.897C800.237 444.366 801.495 445.247 802.753 446.128C804.512 447.941 806.27 449.755 808.827 452.411C811.211 454.541 812.797 455.829 814.383 457.116C817.551 460.573 820.718 464.031 824.637 468.428C827.797 471.743 830.204 474.118 832.611 476.493C833.764 478.164 834.917 479.834 836.781 482.424C839.787 485.922 842.082 488.5 844.377 491.079C845.898 493.357 847.419 495.636 849.643 498.847C851.678 501.399 853.012 503.018 854.345 504.638C854.345 504.638 854.317 504.335 854.359 505.018C855.32 506.772 856.238 507.844 857.156 508.916C857.156 508.916 857.432 509.791 857.938 510.71C859.787 513.361 861.131 515.093 862.474 516.826C862.914 517.78 863.354 518.734 864.316 520.596C866.062 523.116 867.288 524.729 868.513 526.341C870.132 529.42 871.751 532.499 873.99 536.689C876.39 540.767 878.17 543.733 880.603 547.789C884.604 543.104 887.556 539.648 890.507 536.192C896.41 530.726 902.312 525.259 909.156 519.04C911.851 516.514 913.603 514.741 915.356 512.967C915.356 512.967 915.179 512.264 915.916 512.431C919.965 509.799 923.278 507.001 926.59 504.203C929.072 502.563 931.554 500.923 934.899 498.641C936.251 497.481 936.74 496.963 937.23 496.444C938.212 496.025 939.194 495.606 941.033 494.623C943.025 493.001 944.16 491.943 945.295 490.884C945.295 490.884 944.964 491.001 945.815 490.863C952.155 487.635 957.644 484.545 963.132 481.455C966.063 480.155 968.994 478.855 973.111 476.967C981.113 473.708 987.928 471.039 994.743 468.369C995.638 468.298 996.534 468.226 998.613 467.962C1000.75 467.215 1001.7 466.663 1002.65 466.11C1012.51 464.83 1022.36 462.6 1032.22 462.511C1044.78 462.397 1057.35 464.018 1071.11 465.223C1073.1 465.67 1073.87 465.785 1074.65 465.899C1081.94 468.475 1089.23 471.052 1097.62 474.204C1100.05 475.271 1101.38 475.762 1102.71 476.253C1103.64 476.891 1104.57 477.529 1106.41 478.72C1108.43 479.663 1109.54 480.053 1110.64 480.443C1110.64 480.443 1110.68 480.289 1110.91 480.891C1113 482.401 1114.86 483.309 1116.72 484.218C1118.33 485.454 1119.93 486.69 1122.42 488.645C1125.06 490.437 1126.82 491.509 1128.58 492.581C1131.96 495.506 1135.34 498.43 1139.53 502.202C1142.53 505.042 1144.73 507.035 1146.93 509.028C1150.39 513.25 1153.86 517.473 1158.06 522.647C1159.98 524.832 1161.16 526.064 1162.34 527.297C1164.09 530.07 1165.84 532.843 1168.2 536.573C1170.07 539.122 1171.34 540.713 1172.6 542.305C1174.2 545.389 1175.8 548.473 1177.95 552.563C1179.21 554.48 1179.91 555.39 1180.62 556.3C1182.24 560.025 1183.87 563.751 1186.05 568.562C1187.43 571.145 1188.25 572.642 1189.07 574.138C1190.13 577.129 1191.2 580.121 1192.63 584.254C1193.61 586.338 1194.22 587.279 1194.83 588.221C1196.54 593.82 1198.25 599.42 1200.28 606.399C1201.95 611.951 1203.29 616.122 1204.63 620.294C1204.77 621.802 1204.9 623.311 1205.2 626.068C1205.85 628.285 1206.34 629.255 1206.83 630.225C1207.1 632.554 1207.37 634.884 1207.98 638.541C1208.63 641.343 1208.95 642.815 1209.27 644.288C1214.71 680.204 1215.97 716.253 1212.54 753.926C1212.36 757.042 1212.33 758.679 1212.31 760.315C1211.73 764.366 1211.15 768.417 1210.37 773.545C1209.85 775.067 1209.92 775.437 1210.38 775.732C1209.17 782.675 1207.96 789.617 1206.47 798.099C1204.7 807.199 1203.22 814.759 1201.73 822.32C1200.73 826.446 1199.72 830.572 1198.32 835.873C1197.74 838.132 1197.54 839.215 1197.35 840.298C1197.07 841.154 1196.79 842.009 1196.09 844.095C1194.65 849.637 1193.63 853.948 1192.61 858.26C1192 859.842 1191.39 861.424 1190.33 864.172C1188.92 868.986 1187.97 872.635 1187.01 876.284C1185.64 879.91 1184.27 883.536 1182.39 888.388C1180.66 893.77 1179.45 897.926 1178.25 902.082C1177.13 904.505 1176.02 906.928 1174.58 910.113C1174.27 910.873 1174 911.359 1174 911.359L1174.34 911.796C1173.87 912.756 1173.39 913.715 1172.35 915.935C1170.77 920.22 1169.77 923.246 1168.77 926.271C1168.77 926.271 1168.34 926.758 1167.95 927.436C1167.41 928.81 1167.25 929.505 1167.08 930.201C1166.28 931.766 1165.48 933.331 1164.13 935.972C1163.03 938.685 1162.46 940.321 1161.9 941.958C1160.7 944.577 1159.49 947.197 1157.8 950.817C1157.06 952.615 1156.8 953.413 1156.54 954.21C1154.02 959.104 1151.5 963.997 1148.36 970.03C1144.76 977.542 1141.76 983.914 1138.77 990.286C1136.73 993.797 1134.69 997.308 1131.98 1001.88C1126.35 1012.01 1121.41 1021.09 1116.46 1030.17C1114.54 1033.07 1112.63 1035.97 1110.09 1039.86C1108.54 1042.65 1107.63 1044.46 1106.71 1046.27C1106.71 1046.27 1106.3 1046.61 1105.86 1047.13C1104.93 1048.54 1104.44 1049.43 1103.95 1050.33C1103.48 1050.95 1103.01 1051.57 1101.89 1053.2C1098.84 1058.14 1096.43 1062.07 1094.02 1065.99C1092.33 1068.3 1090.63 1070.6 1088.22 1073.87C1085.64 1077.92 1083.78 1081 1081.92 1084.09C1081.42 1084.28 1081.06 1084.62 1080.16 1085.79C1077.89 1089.07 1076.29 1091.66 1074.68 1094.25C1074.16 1094.75 1073.65 1095.24 1072.44 1096.56C1068.82 1101.72 1065.87 1106.04 1062.93 1110.37C1062.93 1110.37 1062.77 1110.37 1062.25 1110.76C1060.48 1113.29 1059.22 1115.42 1057.96 1117.55C1057.96 1117.55 1058.5 1117.52 1057.64 1117.82C1051.28 1125.44 1045.77 1132.77 1040.27 1140.09C1039.19 1141.13 1038.11 1142.17 1036.35 1144.01C1034.34 1146.66 1033.02 1148.5 1031.71 1150.35C1029.6 1152.77 1027.5 1155.19 1024.58 1158.53C1014.59 1170.33 1005.41 1181.2 996.241 1192.07C994.165 1194.21 992.088 1196.36 989.214 1199.32C987.313 1201.56 986.21 1202.98 985.108 1204.4C983.074 1206.43 981.04 1208.46 978.128 1211.29C975.67 1214.02 974.09 1215.95 972.51 1217.88C970.276 1220.05 968.042 1222.21 965 1225.19C963.439 1227.15 962.688 1228.3 961.936 1229.44C961.936 1229.44 962.504 1229.89 961.587 1229.88C958.422 1232.36 956.173 1234.86 953.924 1237.35C953.924 1237.35 953.996 1237.56 953.302 1237.72C950.407 1240.42 948.207 1242.97 946.006 1245.52C946.006 1245.52 946.53 1246.22 945.635 1246.06C942.052 1248.67 939.362 1251.45 936.672 1254.24C936.672 1254.24 936.705 1254.26 936.092 1254.48C933.184 1257.19 930.889 1259.69 928.594 1262.19C928.594 1262.19 928.697 1262.27 928.062 1262.41C925.707 1264.4 923.987 1266.24 922.266 1268.08C921.159 1268.94 920.051 1269.8 918.096 1271.38C916.128 1273.39 915.008 1274.67 913.888 1275.96C913.888 1275.96 913.172 1275.99 912.303 1275.93C907.855 1271.35 904.276 1266.83 900.697 1262.31C900.734 1261.62 900.507 1261.03 899.418 1259.63C895.567 1254.24 892.315 1249.75 889.062 1245.27C888.662 1244.38 888.262 1243.49 887.302 1241.76C885.423 1239.33 884.104 1237.75 882.785 1236.16C882.785 1236.16 882.707 1236.26 882.649 1235.55C879.389 1230.41 876.187 1225.98 872.986 1221.55C871.225 1218.69 869.464 1215.83 867.046 1211.97C864.34 1207.64 861.419 1204.44 864.767 1200.29C865.903 1199.19 867.039 1198.08 868.962 1196.15C875.268 1188.29 880.789 1181.26 886.309 1174.23C892.271 1166.8 898.233 1159.36 904.932 1151.07C905.986 1149.57 906.304 1148.91 906.622 1148.25C907.784 1146.91 908.946 1145.57 910.824 1143.39C913.064 1140.43 914.589 1138.32 916.113 1136.21C916.893 1135.32 917.673 1134.42 919.177 1132.63C922.628 1127.9 925.354 1124.06 928.079 1120.21C932.184 1114.73 936.289 1109.25 941.158 1102.8C943.523 1099.31 945.125 1096.8 946.727 1094.28C946.727 1094.28 946.705 1094.26 947.29 1093.94C950.437 1089.49 952.999 1085.36 955.561 1081.24C955.561 1081.24 955.518 1081.08 956.156 1080.77C958.861 1077.14 960.927 1073.8 962.992 1070.47C962.992 1070.47 962.814 1070.28 963.441 1070.07C966.406 1066.05 968.744 1062.23 971.081 1058.42C974.713 1053.07 978.344 1047.72 982.694 1041.39C984.999 1037.68 986.586 1034.95 988.174 1032.22C988.174 1032.22 988.758 1031.61 989.388 1030.83C991.48 1027.43 992.941 1024.79 994.402 1022.16C995.843 1020 997.283 1017.84 999.39 1014.65C1002.9 1008.49 1005.75 1003.36 1008.6 998.228C1010.29 995.548 1011.97 992.867 1014.33 989.132C1016.26 985.478 1017.5 982.879 1018.75 980.281C1020.08 978.075 1021.42 975.869 1023.37 972.693C1024.79 969.897 1025.59 968.071 1026.39 966.245C1026.39 966.245 1026.89 965.685 1027.38 965.001C1028.1 963.638 1028.35 962.959 1028.6 962.281C1028.6 962.281 1029.06 961.808 1029.58 961.01C1031.32 957.684 1032.53 955.156 1033.75 952.628C1034.72 950.912 1035.7 949.196 1037.25 946.5C1038.77 943.095 1039.71 940.67 1040.64 938.245C1042.58 934.699 1044.52 931.153 1047.04 926.488C1049.18 921.658 1050.75 917.946 1052.31 914.234C1053.11 912.688 1053.9 911.143 1055.2 908.595C1056.03 906.48 1056.35 905.368 1056.68 904.256C1058.65 900.068 1060.62 895.881 1063.16 890.516C1066.83 881.023 1069.92 872.707 1073.02 864.392C1074.93 859.513 1076.84 854.634 1079.25 848.513C1080.75 843.61 1081.75 839.947 1082.76 836.285C1083.43 834.725 1084.1 833.164 1085.24 830.486C1085.97 827.662 1086.24 825.955 1086.51 824.249C1087.89 820.07 1089.27 815.891 1091 810.568C1091.52 808.357 1091.69 807.29 1091.85 806.224C1092.15 805.361 1092.45 804.499 1093.07 802.528C1093.56 800.355 1093.73 799.29 1093.89 798.224C1094.18 797.359 1094.47 796.493 1095.07 794.521C1095.51 792.35 1095.63 791.286 1095.76 790.222C1096.15 788.759 1096.54 787.296 1097.35 784.468C1099.78 770.145 1101.8 757.187 1103.81 744.228C1104.17 740.81 1104.54 737.393 1105.18 732.473C1105.49 727.392 1105.53 723.813 1105.57 720.233C1105.75 712.849 1105.92 705.464 1106.08 696.469C1105.59 691.999 1105.12 689.139 1104.65 686.279C1104.6 684.132 1104.56 681.983 1104.41 678.371C1103.74 674.701 1103.19 672.495 1102.63 670.289C1102.54 668.766 1102.45 667.242 1102.18 664.471C1101.54 662.246 1101.08 661.27 1100.61 660.294C1100.58 659.389 1100.55 658.483 1100.3 656.22C1098.28 649.997 1096.49 645.133 1094.69 640.269C1093.54 637.299 1092.4 634.329 1090.8 630.187C1088.92 627.145 1087.48 625.275 1086.04 623.405C1086.04 623.405 1085.9 623.17 1085.88 622.418C1083.57 618.442 1081.26 615.218 1078.96 611.995C1078.96 611.995 1078.82 612.273 1078.78 611.557C1077.36 609.405 1075.98 607.969 1074.59 606.533C1074.59 606.533 1074.61 606.361 1074.27 605.773C1070.93 602.712 1067.92 600.237 1064.91 597.763C1063.74 596.736 1062.57 595.708 1060.49 594.01C1057.3 592.315 1055 591.29 1052.71 590.266C1051.37 589.514 1050.03 588.762 1047.76 587.57C1046.13 586.967 1045.45 586.803 1044.76 586.639C1044.76 586.639 1043.91 586.189 1043.18 585.835C1041.98 585.041 1041.45 584.938 1040.86 585.172C1039.94 584.894 1039.02 584.616 1036.97 584.016C1034.77 583.591 1033.72 583.488 1032.66 583.386C1025.95 582.965 1019.24 582.545 1010.95 582.171C1008.47 582.365 1007.58 582.512 1006.69 582.658C1005.78 582.685 1004.88 582.711 1002.83 582.896C1000.69 583.484 999.711 583.913 998.728 584.343C997.828 584.35 996.929 584.358 994.688 584.53C990.338 585.829 987.329 586.963 984.321 588.097C983.465 588.204 982.609 588.311 980.719 588.681C979.072 589.152 978.632 589.551 978.365 590.14C978.365 590.14 977.485 590.158 976.393 590.403C968.15 594.409 960.999 598.17 953.848 601.932C953.848 601.932 953.188 601.939 952.327 602.224C949.828 603.738 948.191 604.967 946.553 606.196C946.174 606.306 945.796 606.417 944.643 606.905C943.424 607.501 943.193 607.858 943.175 608.354C941.339 609.507 939.502 610.66 936.563 612.433C926.174 620.817 916.889 628.581 907.604 636.345C905.54 638.14 903.476 639.935 900.694 642.365C899.442 643.287 899.201 643.733 899.253 644.337C898.628 644.811 898.004 645.285 896.539 646.505C893.809 649.499 891.919 651.747 890.029 653.996C885.778 658.458 881.527 662.92 876.643 668.099C875.506 669.132 875.3 669.583 875.39 670.169C874.153 671.553 872.917 672.937 870.823 675.225C864.198 683.475 858.43 690.821 852.661 698.167C851.943 697.241 851.225 696.314 850.339 694.289C849.684 692.213 849.197 691.235 848.711 690.257C848.175 687.373 847.639 684.489 846.854 680.291C845.967 677.407 845.331 675.836 844.694 674.265C844.467 672.602 844.24 670.938 843.746 668.279C843.416 666.801 843.15 666.492 842.681 666.358C841.952 663.468 841.222 660.578 840.177 656.373C838.844 652.779 837.827 650.5 836.81 648.221C834.582 641.853 832.355 635.485 829.773 628.232C829.311 626.912 829.032 626.68 828.582 626.654C828.582 626.654 828.686 626.445 828.578 625.743C827.238 622.774 826.007 620.508 824.775 618.241C823.134 614.512 821.493 610.784 819.211 606.047C818.045 604.436 817.52 603.832 816.996 603.228C816.739 602.335 816.482 601.441 815.692 599.606C813.702 596.493 812.246 594.322 810.79 592.152C810.79 592.152 810.7 592.253 810.663 591.534C806.001 584.596 801.376 578.378 796.751 572.159C796.694 571.484 796.393 570.943 795.236 569.812C794.055 568.597 793.489 568.105 792.922 567.614C786.599 561.325 780.277 555.036 773.061 547.935C770.365 546.13 768.56 545.137 766.756 544.144C766.298 543.615 765.84 543.086 764.751 542.112C763.801 541.226 763.388 541.105 762.88 541.302C758.53 539.037 754.18 536.773 748.983 534.139C747.798 533.367 747.439 533.348 747.06 533.71C746.124 533.273 745.189 532.835 742.909 531.923C737.268 530.75 732.97 530.052 728.673 529.353C725.883 529.073 723.093 528.793 719.003 528.568C717.702 528.623 716.788 528.942 716.788 528.942C715.87 528.913 714.951 528.883 712.773 528.923C709.922 529.456 708.332 529.921 706.741 530.386C705.771 530.467 704.801 530.548 702.779 530.883C701.16 531.279 700.77 531.623 700.556 532.167C700.556 532.167 700.684 532.264 699.95 532.165C696.337 533.355 693.459 534.643 690.581 535.93C687.59 537.377 684.6 538.824 680.741 540.747C679.413 541.459 679.198 541.835 679.229 542.351C677.883 543.199 676.537 544.047 674.278 545.544C671.947 547.595 670.529 548.996 669.111 550.398C667.845 551.426 666.579 552.455 664.467 554.281C661.24 558.108 658.859 561.139 656.478 564.169C655.981 564.597 655.484 565.025 654.305 566.234C652.396 569.189 651.17 571.364 649.944 573.538C649.944 573.538 650.28 573.502 649.552 573.864C646.26 578.918 643.696 583.609 641.132 588.3C639.071 592.501 637.011 596.701 634.427 602.088C632.968 606.281 632.031 609.288 631.094 612.295C630.248 614.47 629.402 616.645 628.095 620.04C627.173 623.536 626.713 625.811 626.253 628.087C624.115 637.479 621.977 646.872 619.486 657.73C618.77 662.919 618.408 666.643 618.045 670.366C617.539 674.415 617.032 678.465 616.282 684.029C616.035 688.471 616.032 691.396 616.029 694.322C615.846 709.699 615.663 725.075 615.519 741.985C615.938 745.769 616.318 748.02 616.697 750.271C616.731 753.054 616.764 755.838 616.842 760.16C617.383 764.085 617.879 766.472 618.375 768.859C618.503 772.126 618.631 775.394 618.839 780.195C619.547 784.564 620.176 787.399 620.804 790.233C620.987 793.037 621.17 795.84 621.494 799.926C622.01 802.224 622.384 803.241 622.759 804.258C624.495 814.467 626.231 824.677 628.265 836.329C629.32 840.595 630.076 843.419 630.833 846.243C631.501 849.761 632.169 853.278 633.002 858.072C633.641 860.335 634.116 861.322 634.59 862.309C635.615 867.265 636.641 872.22 638.156 878.241C638.802 879.608 638.959 879.911 639.116 880.214C640.08 884.514 641.045 888.815 642.482 894.321C643.417 896.171 643.88 896.815 644.344 897.459C644.561 899.295 644.778 901.131 645.263 904.207C646.432 907.774 647.333 910.102 648.234 912.431C648.362 913.308 648.489 914.184 648.9 916.357C650.505 921.195 651.826 924.737 653.147 928.28C654.474 932.682 655.8 937.084 657.649 942.762C659.696 948.112 661.219 952.186 662.742 956.26C666.681 967.156 670.621 978.052 674.897 990.157C675.828 992.298 676.423 993.229 677.017 994.16C678.378 997.945 679.738 1001.73 681.595 1006.69C682.912 1009.35 683.732 1010.83 684.551 1012.32C685.079 1013.97 685.607 1015.62 686.56 1018.38C687.455 1020.09 687.925 1020.7 688.396 1021.31C688.493 1022 688.59 1022.68 688.98 1024.48C691.067 1029.15 692.86 1032.72 694.653 1036.29C695.259 1037.94 695.864 1039.6 696.741 1042.48C694.907 1046.56 692.802 1049.4 690.697 1052.25C690.697 1052.25 690.705 1052.26 690.196 1052.39C689.291 1053.07 688.894 1053.61 688.497 1054.16C688.497 1054.16 688.674 1054.2 688.009 1054.22C685.867 1055.61 684.389 1056.97 682.911 1058.33C682.313 1058.65 681.715 1058.96 680.27 1059.93C676.963 1062.9 674.503 1065.22 672.044 1067.53C672.044 1067.53 672.143 1068.11 671.42 1068C666.645 1071.32 662.592 1074.76 658.54 1078.19C654.765 1081.08 650.989 1083.96 646.312 1087.58C644.347 1089.49 643.284 1090.67 642.22 1091.84C642.22 1091.84 642.597 1092.05 641.833 1092.04C639.539 1093.41 638.009 1094.79 636.48 1096.17C635.307 1096.98 634.134 1097.8 632.052 1099.3C628.083 1102.65 625.023 1105.31 621.962 1107.97C617.097 1111.74 612.231 1115.51 606.41 1119.9C603.6 1118.96 601.746 1117.41 599.891 1115.86C598.011 1111.11 596.131 1106.35 593.793 1100.31C589.784 1090.8 586.233 1082.56 582.682 1074.33C581.167 1069.93 579.653 1065.53 577.818 1060.24C577.38 1058.87 577.075 1058.65 576.584 1058.68C576.584 1058.68 576.687 1058.44 576.588 1057.71C575.223 1054.07 573.957 1051.17 572.692 1048.26C571.726 1045.24 570.761 1042.22 569.361 1038.03C568.2 1035.33 567.473 1033.79 566.745 1032.25C565.554 1028.65 564.362 1025.05 562.824 1020.11C558.604 1007.92 554.732 997.061 550.86 986.203C550.544 984.627 550.227 983.05 549.457 980.518C548.231 979.168 547.458 978.774 546.685 978.38Z" fill="#F58735"/>
<path d="M1856.68 910.435C1856.37 910.292 1856.06 910.149 1854.59 909.403C1844.51 909.108 1835.58 909.415 1826.66 909.722C1826.32 909.794 1825.97 909.867 1824.35 910.024C1818.87 910.793 1814.68 911.478 1810.5 912.163C1808.61 912.358 1806.73 912.553 1804.14 912.82C1804.14 916.914 1804.1 920.513 1804.15 924.109C1805.25 997.284 1806.36 1070.46 1807.45 1143.63C1807.48 1145.62 1807.3 1147.62 1805.94 1150.41C1777.6 1151.18 1750.54 1151.21 1723.48 1151.06C1719.93 1151.04 1716.39 1150.15 1712.85 1149.66C1712.65 1127 1712.62 1104.34 1712.2 1081.69C1710.95 1014.38 1709.54 947.067 1708.2 879.756C1706.21 780.12 1704.25 680.484 1702.23 580.849C1701.81 560.534 1701.15 540.224 1700.57 518.758C1709.75 514.355 1718.95 509.939 1728.87 505.159C1729.58 504.796 1730.09 504.169 1730.09 504.169C1734.03 502.707 1737.97 501.245 1742.77 499.394C1744.07 498.929 1744.33 498.668 1744.4 498.221C1744.83 498.199 1745.26 498.176 1746.73 497.878C1748.56 497.109 1749.35 496.615 1750.14 496.122C1756.58 494.106 1763.02 492.091 1770.65 489.774C1772.67 489.037 1773.52 488.601 1774.37 488.165C1777.39 487.476 1780.41 486.786 1784.65 485.833C1786.77 485.128 1787.67 484.686 1788.58 484.244C1789.55 484.187 1790.52 484.129 1792.69 483.868C1794.83 483.21 1795.78 482.757 1796.72 482.303C1798.3 482.178 1799.89 482.052 1802.7 481.728C1804.87 481.125 1805.8 480.72 1806.73 480.315C1812.89 479.565 1819.04 478.815 1826.74 477.941C1831.07 477.306 1833.86 476.793 1836.64 476.281C1850.69 476.376 1864.73 476.47 1880.29 476.774C1884.05 477.148 1886.29 477.313 1888.53 477.478C1897.34 479.129 1906.16 480.779 1916.21 482.761C1918.5 483.284 1919.56 483.476 1920.62 483.668C1926.94 485.804 1933.27 487.94 1940.72 490.476C1942.77 491.156 1943.7 491.437 1944.63 491.718C1952.84 495.84 1961.04 499.962 1970.15 504.635C1971.5 505.73 1972.07 505.941 1972.76 505.82C1972.76 505.82 1972.97 506.236 1973.23 506.418C1973.49 506.6 1974.23 506.545 1974.23 506.545C1979.32 510.311 1984.4 514.077 1990.31 518.498C1991.53 519.716 1992.08 519.968 1992.77 519.91C1992.77 519.91 1992.8 520.23 1993.09 520.598C1993.71 521.483 1994.18 521.721 1994.8 521.68C1994.8 521.68 1994.92 522.148 1995.25 522.485C1995.86 523.245 1996.25 523.434 1996.76 523.386C1996.76 523.386 1997.09 524.042 1997.4 524.332C1997.72 524.622 1998.26 524.522 1998.26 524.522C2002.48 528.935 2006.71 533.347 2011.48 538.361C2012.02 538.963 2012.8 539.284 2012.8 539.284C2012.8 539.284 2012.92 539.915 2013.27 540.404C2013.88 541.377 2014.28 541.619 2014.83 541.619C2014.83 541.619 2014.77 542.042 2015.17 542.666C2017 544.809 2018.43 546.327 2019.85 547.846C2020.16 548.473 2020.47 549.099 2021.21 550.41C2021.87 551.579 2022.25 551.842 2022.79 551.882C2030.96 564.993 2038.51 578.414 2043.57 594.195C2043.96 595.678 2044.23 596.022 2044.72 596.193C2046.72 609.18 2049.28 622.112 2050.57 635.17C2052 649.714 2049.15 664.072 2046.25 679.451C2045.53 681.053 2045.51 681.583 2045.85 682.133C2045.41 683.539 2044.96 684.946 2044.15 687.389C2043.33 688.972 2043.25 689.567 2043.52 690.212C2041.86 694.841 2040.19 699.47 2038.03 705.142C2037.39 706.871 2037.26 707.558 2037.12 708.244C2033.69 715.028 2030.26 721.812 2026.26 729.539C2025.49 731.107 2025.28 731.734 2025.08 732.36C2025.08 732.36 2024.78 732.451 2024.41 732.923C2023.64 734.359 2023.24 735.322 2022.83 736.285C2018.92 741.869 2015.02 747.452 2010.47 753.864C2009.28 755.11 2009.03 755.666 2009.1 756.36C2009.1 756.36 2008.76 756.412 2008.46 756.675C2007.74 757.244 2007.59 757.653 2007.72 758.164C2006.23 759.86 2004.73 761.556 2002.58 764.032C2001.37 765.187 2001.13 765.704 2001.18 766.364C2001.18 766.364 2000.79 766.427 2000.47 766.705C1999.72 767.271 1999.54 767.673 1999.63 768.189C1999.36 768.391 1999.09 768.593 1998.13 769.496C1997.11 770.843 1996.77 771.488 1996.42 772.134C1994.67 773.839 1992.91 775.545 1990.47 777.959C1989.19 779.044 1988.9 779.586 1988.92 780.293C1988.92 780.293 1988.73 780.296 1988.29 780.514C1987.25 781.099 1986.97 781.627 1986.98 782.319C1986.98 782.319 1986.75 782.314 1986.31 782.543C1985.29 783.13 1985 783.649 1985 784.33C1985 784.33 1984.76 784.318 1984.32 784.548C1983.29 785.133 1983 785.65 1983 786.33C1983 786.33 1982.76 786.318 1982.32 786.547C1981.29 787.13 1981 787.647 1980.99 788.328C1980.99 788.328 1980.76 788.315 1980.31 788.54C1979.28 789.12 1978.98 789.64 1978.98 790.325C1978.98 790.325 1978.75 790.313 1978.31 790.537C1977.28 791.114 1976.97 791.631 1976.94 792.312C1976.94 792.312 1976.74 792.294 1976.28 792.494C1975.21 793.053 1974.9 793.579 1974.86 794.274C1971.7 796.955 1968.53 799.636 1964.69 802.875C1963.62 803.619 1963.48 803.924 1963.6 804.348C1963.6 804.348 1963.02 804.446 1962.51 804.763C1961.49 805.356 1961.22 805.786 1961.19 806.369C1961.19 806.369 1960.83 806.313 1960.35 806.568C1959.29 807.143 1958.97 807.638 1958.91 808.307C1958.91 808.307 1958.74 808.28 1958.24 808.447C1957.37 809.144 1957 809.676 1956.63 810.207C1955.94 810.221 1955.37 810.491 1954.2 811.574C1952.76 812.902 1952.03 813.671 1951.31 814.44C1951.31 814.44 1950.89 814.388 1950.39 814.638C1949.32 815.19 1948.99 815.664 1948.91 816.311C1948.91 816.311 1948.75 816.275 1948.23 816.417C1947.34 817.091 1946.97 817.623 1946.59 818.155C1946.59 818.155 1946.7 818.262 1945.98 818.365C1940.34 822.046 1935.41 825.623 1928.91 830.347C1934.25 830.912 1937.49 831.254 1940.74 831.597C1951.63 834.075 1962.06 837.678 1972.31 844.516C1973.58 845.647 1974.11 845.869 1974.78 845.774C1974.78 845.774 1974.95 846.201 1975.23 846.441C1975.51 846.681 1975.94 846.996 1975.94 846.996L1976.47 846.885C1978.19 848.487 1979.91 850.09 1982.41 852.402C1983.56 853.685 1984.08 853.966 1984.76 853.957C1988.17 857.869 1991.58 861.782 1995.51 866.342C1996.16 867.377 1996.43 867.521 1996.83 867.42C1996.83 867.42 1996.84 867.943 1997.12 868.477C1997.69 869.579 1998.14 869.905 1998.77 869.99C2002.32 875.91 2005.86 881.83 2009.79 888.381C2010.17 889.012 2010.85 889.46 2010.85 889.46C2012.33 892.822 2013.8 896.184 2015.69 900.331C2016.16 901.534 2016.4 901.758 2016.82 901.786C2018.28 905.649 2019.73 909.513 2021.56 914.266C2022.02 915.638 2022.29 915.937 2022.77 916.052C2023.01 917.184 2023.24 918.317 2023.84 920.334C2024.2 921.626 2024.4 921.893 2024.79 922.02C2025.71 925.169 2026.64 928.319 2027.88 932.319C2028.21 933.58 2028.42 933.819 2028.82 933.886C2029 935.006 2029.17 936.126 2029.68 938.211C2030.04 939.662 2030.29 939.976 2030.75 940.119C2030.85 941.108 2030.95 942.096 2031.32 944.154C2031.71 945.822 2032.04 946.26 2032.58 946.538C2032.8 948.092 2033.01 949.645 2033.52 952.202C2033.87 953.758 2034.15 954.15 2034.65 954.381C2034.84 955.97 2035.03 957.559 2035.5 960.186C2035.84 961.79 2036.11 962.202 2036.62 962.461C2039.51 979.112 2042.67 995.721 2045.24 1012.42C2051.03 1049.95 2054.3 1087.72 2054.33 1126.66C2024.9 1128.58 1996.53 1129.52 1968.15 1130.46C1967.78 1107.88 1968.39 1085.23 1966.72 1062.75C1965.35 1044.29 1961.26 1026.04 1958.12 1006.57C1957.71 1004.81 1957.32 1004.58 1956.69 1004.76C1956.03 1001.74 1955.37 998.718 1954.42 994.468C1953.97 992.55 1953.56 992.066 1952.9 991.79C1952.26 989.654 1951.62 987.518 1950.67 984.272C1949.77 982.287 1949.19 981.411 1948.6 980.536C1945 973.371 1941.41 966.206 1937.22 958.109C1935.92 956.411 1935.21 955.645 1934.49 954.878C1934.49 954.878 1934.58 954.482 1934.34 953.968C1933.81 952.854 1933.33 952.505 1932.67 952.408C1932.4 951.804 1932.12 951.201 1931.29 949.864C1929.99 948.42 1929.24 947.711 1928.49 947.001C1928.49 947.001 1928.46 946.509 1928.16 946.053C1927.59 945.095 1927.16 944.837 1926.59 944.825C1926.59 944.825 1926.6 944.419 1926.32 943.974C1925.72 942.974 1925.24 942.692 1924.6 942.685C1924.6 942.685 1924.64 942.358 1924.39 941.915C1923.8 940.896 1923.29 940.616 1922.62 940.631C1922.62 940.631 1922.64 940.332 1922.39 939.9C1921.8 938.895 1921.29 938.622 1920.62 938.648C1920.62 938.648 1920.63 938.332 1920.37 937.92C1919.76 936.958 1919.26 936.709 1918.61 936.76C1918.61 936.76 1918.57 936.353 1918.27 935.98C1917.66 935.102 1917.21 934.889 1916.62 934.967C1916.62 934.967 1916.47 934.496 1915.98 934.017C1914.6 933.033 1913.72 932.528 1912.83 932.024C1912.41 931.512 1912 931 1910.93 929.95C1909.86 928.855 1909.32 928.638 1908.64 928.762C1908.64 928.762 1908.5 928.37 1908 927.969C1906.59 927.143 1905.67 926.718 1904.74 926.293C1898.56 921.091 1891.36 918.361 1882.69 916.344C1880.89 915.032 1879.8 914.823 1878.7 914.614C1878.4 914.464 1878.09 914.315 1876.79 913.772C1874.09 913.111 1872.4 912.844 1870.7 912.577C1870.37 912.445 1870.03 912.313 1868.52 911.845C1863.79 911.151 1860.24 910.793 1856.68 910.435ZM1804.49 785.325C1822.18 778.258 1838.98 769.515 1854.47 758.394C1881.53 738.966 1903.12 715.001 1915.54 683.623C1922.77 665.359 1926.02 646.569 1922.7 626.902C1918.37 601.338 1900.87 584.091 1877.11 582.612C1865.59 581.894 1854.63 584.767 1844.07 589.085C1827.24 595.965 1812.77 606.563 1798.68 617.85C1793.69 621.846 1792.09 626.079 1792.44 632.353C1794.3 666.61 1795.74 700.89 1797.35 735.161C1798.02 749.467 1798.58 763.783 1799.59 778.067C1799.78 780.744 1797.69 785.173 1804.49 785.325Z" fill="#E9EDED"/>
<path d="M1518.71 518.082C1521.36 536.476 1524.11 554.857 1526.64 573.266C1532.48 615.651 1538.28 658.04 1543.97 700.445C1547.02 723.18 1549.66 745.969 1552.73 768.701C1556.86 799.324 1561.34 829.899 1565.47 860.523C1571.31 903.949 1576.91 947.41 1582.73 990.839C1585.42 1010.91 1588.51 1030.94 1591.22 1051.01C1593.85 1070.4 1596.12 1089.85 1598.76 1109.24C1600.47 1121.73 1602.57 1134.16 1604.02 1147.69C1602.01 1149.27 1600.47 1149.77 1598.02 1150.15C1590.34 1150.78 1583.56 1151.53 1576.79 1152.28C1576.79 1152.28 1576.73 1152.23 1575.81 1152.11C1567.54 1152.76 1560.18 1153.53 1552.83 1154.31C1552.83 1154.31 1552.75 1154.23 1551.82 1154.13C1543.56 1154.79 1536.22 1155.56 1528.87 1156.33C1528.87 1156.33 1528.77 1156.24 1527.85 1156.15C1520.15 1156.78 1513.38 1157.51 1506.61 1158.23C1505.41 1158.66 1504.22 1159.09 1501.72 1159.99C1492.62 1080.1 1483.54 1000.51 1474.34 919.725C1449.49 919.725 1425.01 919.725 1398.81 919.716C1394.29 919.858 1391.49 920.009 1388.7 920.159C1383.05 918.459 1382.74 922.336 1382.1 927.262C1381.41 928.897 1381.36 929.484 1381.66 930.1C1381.19 932.223 1380.71 934.345 1379.83 937.782C1379.26 940.82 1379.09 942.544 1378.93 944.269C1374.9 962.685 1370.78 981.081 1366.88 999.522C1362.14 1021.89 1357.58 1044.29 1352.74 1067.95C1352.6 1069.57 1352.66 1069.92 1352.72 1070.27C1351.93 1073.58 1351.14 1076.89 1350.03 1081.25C1349.32 1082.91 1349.29 1083.53 1349.6 1084.17C1344.83 1106.46 1340.06 1128.74 1334.06 1151.74C1303.12 1152.4 1273.41 1152.4 1243.7 1152.24C1240.17 1152.22 1236.64 1151.36 1233.11 1150.88C1239 1126.19 1245.36 1101.59 1250.58 1076.75C1252.66 1066.85 1255.87 1057.28 1257.72 1047.34C1260.58 1031.9 1263.64 1016.5 1267.01 1001.16C1268.56 994.144 1271.26 987.385 1273.02 980.4C1274.06 976.27 1273.98 971.865 1274.93 967.706C1275.86 963.669 1277.47 959.788 1278.99 954.844C1279.47 953.415 1279.4 953.04 1278.99 952.725C1280.32 947.476 1281.69 942.239 1282.96 936.977C1285.61 925.997 1288.2 915.004 1291.07 902.971C1291.63 901.443 1291.6 900.991 1291.21 900.567C1293.79 888.374 1296.19 876.138 1299.03 864.002C1300.8 856.413 1303.89 849.092 1305.21 841.447C1308.1 824.704 1313.99 808.696 1317.05 790.931C1317.62 789.431 1317.58 788.988 1317.2 788.572C1319.14 778.925 1320.86 769.226 1323.1 759.648C1324.65 753.017 1326.91 746.551 1329.09 738.978C1329.64 737.464 1329.61 737.01 1329.23 736.581C1332.45 721.678 1335.6 706.755 1338.97 691.885C1339.89 687.826 1341.5 683.925 1343.04 678.925C1343.58 677.429 1343.54 676.998 1343.14 676.605C1343.66 675.019 1344.19 673.433 1344.93 670.824C1345.42 669.379 1345.35 669.031 1344.92 668.759C1345.26 668.189 1345.77 667.655 1345.9 667.043C1348.96 651.768 1351.77 636.437 1355.11 621.224C1356.71 613.946 1360.11 607.018 1361.3 599.704C1363.51 586.132 1368.44 573.258 1370.93 558.769C1371.41 557.376 1371.34 557.029 1370.93 556.753C1373.94 544.947 1376.96 533.141 1380.31 520.056C1393.64 520.056 1407.23 520.056 1422.67 520.161C1443.24 519.607 1461.96 518.949 1480.68 518.291C1490.78 518.195 1500.87 518.1 1512.61 518C1515.74 518.025 1517.23 518.053 1518.71 518.082ZM1406.96 777.442C1401.34 795.738 1395.72 814.035 1390.13 832.255C1421.11 832.255 1450.8 832.255 1481.36 832.255C1468.43 776.306 1455.81 721.697 1443.19 667.087C1442.62 667.171 1442.04 667.256 1441.47 667.34C1430.12 703.532 1418.78 739.723 1406.96 777.442Z" fill="#E9EDED"/>
<path d="M404.697 940.272C407.587 952.595 410.477 964.919 413.67 978.238C413.996 979.731 414.244 980.062 414.716 980.225C416.271 987.252 417.826 994.278 419.704 1002.27C420.04 1003.71 420.275 1004.03 420.73 1004.18C422.284 1011.21 423.838 1018.24 425.713 1026.25C426.042 1027.7 426.277 1028.02 426.737 1028.17C426.969 1029.88 427.201 1031.6 427.755 1034.26C428.081 1035.68 428.307 1035.99 428.755 1036.13C428.974 1037.84 429.194 1039.55 429.727 1042.24C430.05 1043.69 430.284 1044.01 430.742 1044.16C432.331 1051.23 433.92 1058.29 435.816 1066.29C436.117 1067.66 436.33 1067.94 436.761 1068.06C437.471 1072.24 438.181 1076.41 438.075 1081.42C435.051 1082.9 432.844 1083.56 430.637 1084.23C427.83 1084.83 425.024 1085.43 420.743 1086.1C416.501 1086.91 413.734 1087.65 410.967 1088.38C410.967 1088.38 410.823 1088.27 410.064 1088.26C407.07 1088.9 404.835 1089.56 402.599 1090.22C402.599 1090.22 401.62 1090.09 400.469 1090.19C397.116 1090.95 394.914 1091.61 392.711 1092.27C392.365 1092.23 392.019 1092.19 390.503 1092.25C387.168 1093 385.004 1093.66 382.839 1094.32C382.839 1094.32 382.752 1094.24 381.996 1094.2C378.472 1094.9 375.704 1095.63 372.935 1096.37C372.935 1096.37 372.81 1096.28 372.055 1096.25C369.052 1096.88 366.805 1097.55 364.558 1098.21C364.558 1098.21 363.601 1098.07 362.456 1098.17C359.08 1098.92 356.849 1099.58 354.619 1100.24C351.819 1100.83 349.019 1101.42 344.747 1102.08C340.515 1102.89 337.755 1103.64 334.995 1104.38C334.995 1104.38 334.833 1104.26 333.971 1104.25C330.966 1104.29 328.823 1104.34 326.681 1104.39C326.612 1104 326.544 1103.61 326.249 1102.25C325.852 1100.63 325.462 1100.17 324.853 1099.89C324.105 1097.09 323.357 1094.3 322.332 1090.38C321.888 1088.6 321.494 1088.14 320.874 1087.86C320.776 1087.01 320.679 1086.17 320.321 1084.29C319.894 1082.6 319.5 1082.13 318.877 1081.85C318.778 1081.01 318.678 1080.17 318.331 1078.29C317.92 1076.58 317.521 1076.1 316.889 1075.82C316.785 1074.99 316.681 1074.15 316.327 1072.28C315.922 1070.57 315.529 1070.09 314.898 1069.8C314.798 1068.97 314.697 1068.13 314.344 1066.27C313.926 1064.56 313.524 1064.08 312.885 1063.81C312.794 1062.97 312.702 1062.13 312.352 1060.26C311.931 1058.55 311.529 1058.08 310.89 1057.8C310.797 1056.96 310.705 1056.13 310.357 1054.26C309.94 1052.54 309.539 1052.06 308.898 1051.78C308.161 1049.03 307.424 1046.28 306.407 1042.38C305.971 1040.52 305.565 1040.03 304.909 1039.75C304.822 1038.93 304.736 1038.11 304.403 1036.25C304.003 1034.5 303.591 1034 302.921 1033.72C302.829 1032.91 302.737 1032.09 302.4 1030.24C301.749 1028.69 301.343 1028.18 300.937 1027.68C300.207 1024.94 299.476 1022.21 298.469 1018.33C297.779 1016.67 297.366 1016.15 296.952 1015.63C296.952 1015.63 297.047 1014.87 296.862 1013.92C296.105 1011.85 295.533 1010.74 294.961 1009.63C294.233 1006.91 293.506 1004.2 292.523 1000.31C291.728 998.22 291.19 997.304 290.651 996.389C290.04 994.097 289.428 991.806 288.539 988.339C287.836 986.615 287.411 986.067 286.987 985.519C286.987 985.519 287.066 984.817 286.44 983.79C285.161 982.643 284.507 982.409 283.857 982.421C241.676 983.143 199.495 983.869 157.316 984.694C155.886 984.722 154.476 985.765 153.057 986.335C152.2 988.363 151.342 990.391 150.106 993.388C149.273 994.919 149.18 995.536 149.449 996.208C149.148 997.016 148.847 997.824 148.201 999.555C147.413 1000.99 147.326 1001.56 147.593 1002.18C145.874 1007.51 144.154 1012.84 142.053 1019.24C141.227 1020.89 141.139 1021.53 141.407 1022.21C141.115 1023.01 140.823 1023.82 140.181 1025.54C139.391 1026.98 139.303 1027.55 139.566 1028.18C138.497 1031.45 137.428 1034.72 135.896 1039.2C135.233 1041.69 135.032 1042.98 134.831 1044.26C134.831 1044.26 134.376 1044.9 134.017 1045.6C133.566 1046.93 133.475 1047.57 133.384 1048.21C133.095 1049.01 132.807 1049.81 132.166 1051.53C131.37 1052.97 131.281 1053.55 131.548 1054.19C131.228 1055.02 130.908 1055.85 130.259 1057.61C129.515 1059.03 129.446 1059.57 129.723 1060.14C128.64 1063.48 127.558 1066.81 126.034 1071.2C125.506 1072.92 125.418 1073.58 125.331 1074.24C125.052 1075.02 124.773 1075.79 124.115 1077.48C123.295 1078.96 123.211 1079.56 123.487 1080.22C121.815 1085.53 120.144 1090.85 118.056 1097.22C117.543 1098.92 117.446 1099.57 117.349 1100.22C115.474 1105.45 113.598 1110.68 110.453 1116.75C86.6301 1118.41 64.0817 1119.37 41.5241 1119.99C28.6227 1120.35 15.7063 1120.16 3 1119.57C3.66009 1117.22 4.11685 1115.5 4.79794 1113.69C5.02228 1113.61 4.81366 1112.87 5.3595 1112.15C6.13995 1110.28 6.37457 1109.11 6.85989 1107.82C7.41541 1107.32 7.3718 1106.99 7.51508 1106.05C8.24695 1104.28 8.44348 1103.17 8.90939 1101.91C9.4985 1101.36 9.4761 1100.98 9.62595 1100.02C11.0055 1096.39 11.8709 1093.37 13.067 1090.12C13.8075 1089.46 13.8806 1088.96 14.017 1087.81C14.553 1086.23 14.6893 1085.27 15.271 1083.94C15.95 1082.46 16.1837 1081.35 16.7886 1079.62C18.3143 1075.34 19.4688 1071.67 20.8867 1067.86C21.4695 1067.33 21.4361 1066.98 21.566 1066.02C22.2755 1064.29 22.4693 1063.21 22.9474 1061.96C23.5707 1061.38 23.5697 1060.97 23.7306 1059.93C25.6733 1054.77 27.114 1050.24 28.7723 1045.63C28.9901 1045.55 28.7582 1044.9 29.2833 1044.16C30.0601 1042.24 30.3117 1041.06 30.9066 1039.52C31.4929 1038.23 31.736 1037.3 32.2723 1035.8C32.5825 1034.81 32.5993 1034.39 32.8736 1033.83C33.4408 1033.31 33.4001 1032.97 33.5395 1031.98C34.9509 1028.06 35.8318 1024.82 37.0332 1021.56C37.7799 1021.2 37.8142 1020.82 37.8887 1019.82C38.4599 1018.26 38.5989 1017.3 39.0791 1016.12C39.8527 1015.45 39.9399 1014.95 40.0845 1013.67C41.9076 1008.39 43.3282 1003.81 44.959 999.237C45.169 999.236 44.8867 998.769 45.4247 998.084C46.1832 996.266 46.4038 995.135 46.8877 993.862C47.4701 993.335 47.4377 992.983 47.5747 992.015C48.2836 990.283 48.4714 989.199 48.9408 987.948C49.5572 987.375 49.5463 986.977 49.707 985.905C52.3403 978.751 54.4563 972.28 56.8037 965.709C57.0352 965.609 56.8421 964.803 57.3823 964.092C58.8608 960.052 59.7991 956.722 60.9869 953.381C61.2364 953.37 61.115 952.579 61.6312 951.962C62.3256 950.294 62.5038 949.244 62.9804 948.008C63.6463 947.401 63.66 946.969 63.7842 945.918C64.4073 944.312 64.5662 943.312 65.0448 942.1C65.7557 941.447 65.8111 940.968 65.9727 939.803C67.8033 934.709 69.1919 930.263 70.8108 925.721C71.041 925.624 70.8411 924.839 71.3807 924.128C72.1499 922.261 72.3793 921.103 72.861 919.818C73.4221 919.317 73.3778 918.991 73.5098 918.056C74.2447 916.3 74.45 915.201 74.9331 913.937C75.5442 913.37 75.5357 912.976 75.6882 911.971C76.3581 910.31 76.5254 909.268 76.9928 908.032C77.6556 907.411 77.6783 906.968 77.8199 905.91C78.4323 904.327 78.586 903.341 79.0761 902.134C79.8303 901.465 79.9109 900.963 80.0662 899.74C124.313 774.254 168.149 649.436 212.142 524.17C241.206 523.445 269.732 522.733 298.61 522.012C300.529 528.653 302.25 534.609 303.971 540.564C306.764 552.082 309.514 563.611 312.362 575.116C316.006 589.834 319.729 604.532 323.73 620.223C324.041 621.696 324.271 622.023 324.731 622.188C329.65 642.52 334.569 662.852 339.78 684.176C340.065 685.655 340.289 685.983 340.745 686.154C341.669 690.513 342.592 694.872 343.803 700.209C344.072 701.67 344.28 702.02 344.712 702.236C346.323 709.231 347.933 716.226 349.828 724.206C350.093 725.665 350.296 726.007 350.722 726.215C352.346 733.221 353.97 740.227 355.867 748.202C356.127 749.631 356.339 749.933 356.776 750.077C357.73 754.476 358.685 758.874 359.903 764.237C360.137 765.655 360.329 765.979 360.741 766.174C362.389 773.229 364.037 780.284 365.947 788.265C366.196 789.611 366.396 789.867 366.808 789.96C368.231 796.303 369.655 802.646 371.334 810.187C372.004 812.231 372.419 813.078 372.834 813.925C374.255 820.276 375.677 826.628 377.363 834.103C377.729 835.821 378.05 836.255 378.59 836.527C379.44 840.699 380.29 844.871 381.402 850.131C381.76 851.805 382.074 852.23 382.604 852.495C384.139 859.38 385.673 866.265 387.517 874.2C387.875 875.793 388.151 876.173 388.652 876.391C390.174 883.31 391.696 890.229 393.523 898.192C393.889 899.775 394.169 900.147 394.67 900.354C394.866 901.985 395.062 903.617 395.573 906.242C395.929 907.762 396.194 908.122 396.684 908.317C396.874 909.948 397.063 911.58 397.55 914.224C397.903 915.769 398.179 916.137 398.675 916.341C400.211 923.305 401.746 930.27 403.609 938.236C403.965 939.747 404.219 940.092 404.697 940.272ZM227.807 734.218C212.428 773.309 197.05 812.399 181.223 852.631C214.758 853.63 246.471 854.576 279.335 855.556C265.836 805.807 252.748 757.57 239.659 709.333C238.989 709.282 238.32 709.23 237.65 709.178C234.569 717.051 231.487 724.924 227.807 734.218Z" fill="#E9EDED"/>
<path d="M1010.47 126.182C1016.96 119.839 1023.46 113.497 1030.8 106.51C1032.08 105.357 1032.51 104.848 1032.93 104.339C1033.96 103.929 1034.98 103.519 1036.95 102.595C1038.51 101.575 1039.12 101.069 1039.73 100.563C1042.86 100.5 1045.98 100.436 1050.25 100.817C1052.49 101.607 1053.59 101.953 1054.69 102.299C1054.69 102.299 1054.7 102.263 1055.01 102.807C1057.09 104.381 1058.86 105.41 1060.64 106.44C1064.24 110.838 1067.83 115.236 1072.11 120.634C1074.69 124.538 1076.6 127.44 1078.51 130.343C1079.14 131.958 1079.76 133.573 1080.9 136.374C1083.13 141.141 1084.86 144.723 1086.59 148.304C1087.69 151.902 1088.79 155.5 1090.21 160.394C1091.27 163.879 1092 166.068 1092.74 168.257C1094.27 182.11 1096.61 195.936 1097.08 209.825C1097.46 221.382 1095.63 233.012 1094.43 245.859C1093.95 248.173 1093.82 249.239 1093.68 250.306C1093.33 251.782 1092.97 253.259 1092.2 255.995C1090.59 261.634 1089.4 266.015 1088.21 270.395C1085.08 277.105 1081.94 283.814 1078.12 291.607C1073.19 298.545 1068.94 304.4 1064.69 310.255C1062.63 312.064 1060.57 313.872 1057.57 316.315C1055.29 317.966 1053.95 318.983 1052.6 319.999C1050.96 320.698 1049.32 321.397 1046.69 322.515C1045.12 323.171 1044.73 323.596 1044.55 324.21C1043.07 324.485 1041.58 324.76 1038.78 325.349C1035.19 326.176 1032.91 326.69 1030.64 327.203C1028.53 327.149 1026.43 327.095 1022.81 326.916C1015.75 325.445 1010.21 324.1 1004.66 322.755C993.031 316.554 983.729 307.832 975.901 295.657C972.935 289.76 970.628 285.006 968.322 280.252C967.724 278.019 967.126 275.786 966.309 272.38C965.61 270.232 965.13 269.257 964.65 268.282C964.464 266.114 964.278 263.947 963.946 260.531C963.438 258.272 963.077 257.264 962.716 256.255C963.433 243.504 964.149 230.752 965.241 216.755C965.781 214.418 965.945 213.326 966.109 212.235C966.382 211.382 966.655 210.529 967.332 208.513C968.05 205.654 968.364 203.957 968.678 202.261C970.652 197.408 972.627 192.554 975.086 186.616C975.862 184.438 976.153 183.344 976.444 182.249C976.444 182.249 976.937 181.659 977.495 180.837C980.15 175.424 982.247 170.833 984.345 166.243C990.353 156.74 996.361 147.236 1003.13 136.748C1006.08 132.569 1008.28 129.375 1010.47 126.182Z" fill="#F48736"/>
<path d="M466.502 366.269C466.587 359.539 466.671 352.81 466.884 344.395C467.571 339.452 468.09 336.186 468.693 332.935C472.344 313.257 478.544 294.487 489.574 277.647C497.503 265.542 505.527 264.09 516.781 273.093C523.165 278.2 528.519 284.594 534.485 291.08C537.227 295.523 539.821 299.295 542.437 303.665C543.241 305.59 544.024 306.917 544.862 308.841C545.427 310.042 545.936 310.644 546.386 311.542C546.328 311.837 546.755 312.262 546.786 312.977C548.529 317.975 550.241 322.258 552.054 327.36C556.354 343.259 557.128 358.665 556.12 374.828C553.907 383.01 552.117 390.565 549.824 398.55C545.138 404.386 540.955 409.792 536.185 415.344C533.604 416.966 531.61 418.441 528.956 419.869C527.044 420.201 525.79 420.581 523.977 420.87C522.402 421.227 521.387 421.676 519.947 422.033C519.522 421.941 518.708 422.248 518.044 422.105C516.487 422.069 515.594 422.176 514.122 422.111C512.747 421.99 511.951 422.04 510.597 421.687C508.258 420.978 506.475 420.672 504.673 420.306C504.654 420.247 504.55 420.316 504.394 420.037C503.875 419.393 503.489 419.368 502.474 419.236C498.012 416.681 494.158 414.574 490.029 411.869C484.851 405.39 479.948 399.508 475.005 393.108C474.423 391.735 473.881 390.88 473.252 389.378C472.374 387.229 471.582 385.728 470.752 383.457C469.31 377.215 467.906 371.742 466.502 366.269Z" fill="#F48736"/>
<path d="M1182.94 342.384C1184.69 340.676 1186.45 338.968 1189.03 336.431C1193.71 331.683 1197.56 327.765 1201.42 323.847C1205.58 321.004 1209.75 318.162 1215.03 314.723C1222.34 311.092 1228.55 309.327 1234.82 313.927C1244.64 326.792 1248.52 341.631 1248.96 357.499C1249.17 365.096 1248.79 372.71 1248.35 381.526C1247.68 383.305 1247.77 383.797 1248.29 384.212C1247.72 386.931 1247.14 389.65 1246.29 393.444C1245.63 394.998 1245.63 395.475 1246.01 395.947C1243.61 402.215 1241.21 408.483 1238.23 415.831C1237.31 418.015 1236.96 419.119 1236.61 420.223C1235.42 421.915 1234.24 423.606 1232.53 426.03C1231.53 427.106 1231.38 427.562 1231.56 428.13C1230.99 428.87 1230.43 429.61 1229.08 431.296C1226.28 434.853 1224.27 437.463 1222.25 440.074C1220.68 441.341 1219.1 442.608 1216.5 444.533C1211.25 447.617 1207.01 450.042 1202.77 452.467C1201.14 452.602 1199.5 452.737 1196.47 452.934C1193.78 453.206 1192.48 453.416 1191.18 453.626C1188.98 453.159 1186.79 452.692 1183.29 451.727C1178.9 449.672 1175.79 448.115 1172.68 446.557C1172.68 446.557 1172.26 446.037 1171.64 445.35C1167.64 440.404 1164.25 436.144 1160.86 431.883C1154.73 415.758 1154.92 399.407 1159.52 381.736C1160.08 379.811 1160.25 379.064 1160.41 378.316C1161.2 376.76 1161.98 375.204 1163.33 372.667C1164.23 370.591 1164.57 369.497 1164.91 368.402C1164.91 368.402 1164.76 368.264 1165.31 368.007C1166.7 365.917 1167.53 364.083 1168.36 362.249C1170.48 359.4 1172.6 356.551 1175.44 352.745C1176.66 350.703 1177.17 349.619 1177.68 348.534C1178.15 348.321 1178.52 347.994 1179.5 346.971C1181.12 345.056 1182.03 343.72 1182.94 342.384Z" fill="#F48736"/>
<path d="M1044.97 15.0876C1047.44 11.5948 1049.72 8.77652 1052.1 6.04962C1059.52 -2.43219 1062.86 -2.15397 1069.76 7.89091C1074.07 23.3404 1073.74 38.412 1071.67 53.5927C1070.5 62.2027 1066.03 67.4216 1056.14 69.2183C1052.8 69.1856 1050.86 69.1366 1048.92 69.0875C1048 68.8113 1047.08 68.5351 1045.05 67.8277C1042.85 67.0359 1041.77 66.6752 1040.69 66.3146C1039.07 64.5161 1037.44 62.7177 1035.3 59.8772C1034.08 56.644 1033.39 54.4528 1032.69 52.2616C1032.83 51.3892 1032.97 50.5168 1033.39 48.4724C1033.84 45.6084 1034 43.9164 1034.16 42.2245C1037.71 33.4176 1041.27 24.6108 1044.97 15.0876Z" fill="#F3893A"/>
<path d="M1240.6 295.99C1237.14 295.463 1233.68 294.936 1229.13 293.825C1226.98 292.802 1225.91 292.363 1224.85 291.925C1218.23 285.589 1216.28 278.305 1220.94 268.586C1223.73 263.655 1225.91 259.935 1228.1 256.214C1228.1 256.214 1228.72 255.622 1229.37 254.879C1231.57 252.174 1233.12 250.211 1234.68 248.249C1238.45 245.292 1242.23 242.335 1247.11 238.684C1251.68 237.501 1255.14 237.011 1258.6 236.522C1259.28 238.048 1259.96 239.575 1260.79 242.436C1261.21 245.281 1261.47 246.792 1261.73 248.303C1261.3 252.345 1260.87 256.386 1260.04 261.696C1259.51 264.074 1259.38 265.184 1259.25 266.293C1256.35 273.519 1253.46 280.744 1249.91 289.047C1246.36 292.079 1243.48 294.035 1240.6 295.99Z" fill="#F3893A"/>
<path d="M690.7 294.312C690.556 288.888 690.411 283.464 690.156 276.553C689.597 273.464 689.148 271.861 688.699 270.259C688.667 268.119 688.634 265.98 688.551 262.261C688.257 258.532 688.013 256.382 687.769 254.232C687.644 250.76 687.519 247.288 687.514 242.474C687.446 238.838 687.259 236.544 687.072 234.249C687.653 229.52 688.235 224.791 689.14 218.761C689.565 216.381 689.667 215.302 689.768 214.222C691.375 208.078 692.981 201.933 695.016 194.519C695.781 191.584 696.118 189.918 696.456 188.251C703.014 174.077 709.022 159.612 716.343 145.844C720.503 138.021 726.495 131.076 732.245 124.225C737.521 117.939 744.564 116.11 752.929 117.058C788.634 121.107 804.884 144.457 806.505 178.084C807.965 208.364 799.758 236.743 787.66 264.098C779.41 282.751 769.321 300.388 755.218 315.344C746.223 324.883 736.557 333.585 720.976 333.755C716.688 332.343 713.737 331.219 710.785 330.095C709.107 328.347 707.429 326.599 705.128 323.937C703.265 321.374 702.024 319.725 700.783 318.076C699.926 315.761 699.069 313.446 697.885 310.226C697.448 308.836 697.149 308.541 696.661 308.438C695.685 304.772 694.708 301.106 693.338 296.518C692.196 295.168 691.448 294.74 690.7 294.312Z" fill="#F48736"/>
<path d="M496.214 243.448C482.516 241.459 478.717 238.234 477.386 226.411C475.874 212.975 477.934 199.921 484.077 187.768C488.064 179.879 493.12 179.041 498.248 186.163C502.435 191.978 505.387 198.828 508.043 205.552C509.966 210.422 510.742 215.797 511.622 221.016C513.885 234.429 510.548 239.384 496.214 243.448Z" fill="#F3893A"/>
<path d="M720.927 57.1418C723.172 45.1097 726.712 34.448 732.802 24.8081C739.205 14.6728 745.53 14.6228 750.587 25.6536C754.385 33.9388 756.511 43.1507 758.242 52.1687C759.476 58.5909 759.091 65.3831 758.936 71.9986C758.708 81.7376 753.519 87.1912 743.878 88.4849C732.368 90.0294 718.986 85.0041 720.386 67.954C720.657 64.6541 720.69 61.3347 720.927 57.1418Z" fill="#F3893A"/>
<path d="M9.84 1273C7.28 1273 5.08 1272.08 3.24 1270.24C1.48 1268.4 0.6 1266.2 0.6 1263.64V1200.64C0.6 1196.32 2.04 1193.12 4.92 1191.04C7.8 1188.96 12.24 1187.92 18.24 1187.92V1257.76H49.2C53.2 1257.76 56.24 1259.08 58.32 1261.72C60.48 1264.28 61.56 1268.04 61.56 1273H9.84ZM97.0153 1274.08C90.4553 1274.08 84.4153 1272.8 78.8953 1270.24C73.3753 1267.6 68.9753 1264.08 65.6953 1259.68C62.4953 1255.2 60.8953 1250.4 60.8953 1245.28V1216.72C60.8953 1211.6 62.4953 1206.84 65.6953 1202.44C68.9753 1197.96 73.3753 1194.44 78.8953 1191.88C84.4153 1189.24 90.4553 1187.92 97.0153 1187.92C103.575 1187.92 109.615 1189.24 115.135 1191.88C120.655 1194.44 125.015 1197.96 128.215 1202.44C131.495 1206.84 133.135 1211.6 133.135 1216.72V1245.28C133.135 1250.4 131.495 1255.2 128.215 1259.68C125.015 1264.08 120.655 1267.6 115.135 1270.24C109.615 1272.8 103.575 1274.08 97.0153 1274.08ZM97.0153 1258.72C102.455 1258.72 106.895 1257.44 110.335 1254.88C113.775 1252.32 115.495 1249 115.495 1244.92V1217.08C115.495 1213 113.775 1209.68 110.335 1207.12C106.895 1204.56 102.455 1203.28 97.0153 1203.28C91.5753 1203.28 87.1353 1204.56 83.6953 1207.12C80.2553 1209.68 78.5353 1213 78.5353 1217.08V1244.92C78.5353 1249 80.2553 1252.32 83.6953 1254.88C87.1353 1257.44 91.5753 1258.72 97.0153 1258.72ZM168.742 1274.08C162.582 1274.08 156.982 1272.92 151.942 1270.6C146.982 1268.28 143.102 1265.08 140.302 1261C137.502 1256.92 136.102 1252.32 136.102 1247.2C136.102 1243.6 137.622 1241.12 140.662 1239.76C143.782 1238.32 148.182 1237.6 153.862 1237.6C153.622 1238.88 153.502 1240.8 153.502 1243.36C153.502 1248.4 154.782 1252.24 157.342 1254.88C159.902 1257.44 163.702 1258.72 168.742 1258.72C173.702 1258.72 177.462 1257.28 180.022 1254.4C182.662 1251.52 183.982 1247.36 183.982 1241.92V1204.24H172.582C168.582 1204.24 165.582 1203 163.582 1200.52C161.662 1197.96 160.702 1194.12 160.702 1189H192.982C195.382 1189 197.422 1189.8 199.102 1191.4C200.782 1192.92 201.622 1194.8 201.622 1197.04V1241.92C201.622 1248.08 200.182 1253.6 197.302 1258.48C194.502 1263.36 190.582 1267.2 185.542 1270C180.582 1272.72 174.982 1274.08 168.742 1274.08ZM224.073 1274.08C220.233 1273.76 217.233 1272.52 215.073 1270.36C212.913 1268.2 211.833 1265.48 211.833 1262.2C211.833 1259.64 212.473 1256.96 213.753 1254.16L240.873 1193.8C241.753 1191.8 242.873 1190.32 244.233 1189.36C245.673 1188.4 247.433 1187.92 249.513 1187.92C251.593 1187.92 253.313 1188.4 254.673 1189.36C256.113 1190.32 257.273 1191.8 258.153 1193.8L285.273 1254.16C286.553 1256.96 287.193 1259.6 287.193 1262.08C287.193 1265.44 286.113 1268.2 283.953 1270.36C281.793 1272.52 278.753 1273.76 274.833 1274.08L264.753 1252.12H234.153L224.073 1274.08ZM259.353 1237L246.993 1206.28L245.313 1207L248.553 1215.04L239.433 1237H259.353ZM365.679 1274.08C361.359 1274.08 358.479 1272.12 357.039 1268.2L326.559 1189.72C327.439 1189.24 328.599 1188.84 330.039 1188.52C331.559 1188.12 332.959 1187.92 334.239 1187.92C341.119 1187.92 345.519 1190.68 347.439 1196.2L364.719 1244.68L361.719 1252.84L363.159 1253.44L383.799 1196.2C385.879 1190.68 390.279 1187.92 396.999 1187.92C398.279 1187.92 399.639 1188.12 401.079 1188.52C402.599 1188.84 403.799 1189.24 404.679 1189.72L374.319 1268.2C372.879 1272.12 369.999 1274.08 365.679 1274.08ZM417.844 1200.76C417.844 1196.76 419.364 1193.64 422.404 1191.4C425.524 1189.08 429.884 1187.92 435.484 1187.92V1261.24C435.484 1265.32 433.924 1268.48 430.804 1270.72C427.764 1272.96 423.444 1274.08 417.844 1274.08V1200.76ZM451.069 1197.04C451.069 1194.72 451.909 1192.8 453.589 1191.28C455.349 1189.76 457.469 1189 459.949 1189H491.509C500.469 1189 507.349 1191.32 512.149 1195.96C517.029 1200.52 519.469 1207.04 519.469 1215.52C519.469 1220.24 518.509 1224.2 516.589 1227.4C514.749 1230.6 511.869 1233.12 507.949 1234.96V1235.44C514.909 1238.56 518.389 1244.44 518.389 1253.08V1261.36C518.389 1265.52 516.869 1268.68 513.829 1270.84C510.869 1273 506.509 1274.08 500.749 1274.08V1253.68C500.749 1249.68 499.949 1246.76 498.349 1244.92C496.829 1243 494.469 1242.04 491.269 1242.04H468.469V1261.36C468.469 1265.52 466.989 1268.68 464.029 1270.84C461.069 1273 456.749 1274.08 451.069 1274.08V1197.04ZM490.549 1227.04C494.229 1227.04 497.029 1226.04 498.949 1224.04C500.869 1222.04 501.829 1219.16 501.829 1215.4C501.829 1211.48 500.909 1208.6 499.069 1206.76C497.309 1204.92 494.469 1204 490.549 1204H468.469V1227.04H490.549ZM552.561 1204.24H523.641C523.641 1194.08 528.241 1189 537.441 1189H599.001C599.001 1199.16 594.401 1204.24 585.201 1204.24H570.201V1261.36C570.201 1265.52 568.681 1268.68 565.641 1270.84C562.681 1273 558.321 1274.08 552.561 1274.08V1204.24ZM643.969 1274.08C637.089 1274.08 630.889 1272.72 625.369 1270C619.929 1267.2 615.649 1263.32 612.529 1258.36C609.489 1253.4 607.969 1247.84 607.969 1241.68V1200.64C607.969 1196.48 609.449 1193.32 612.409 1191.16C615.449 1189 619.849 1187.92 625.609 1187.92V1241.68C625.609 1246.88 627.249 1251.04 630.529 1254.16C633.889 1257.2 638.369 1258.72 643.969 1258.72C649.569 1258.72 654.009 1257.2 657.289 1254.16C660.649 1251.04 662.329 1246.88 662.329 1241.68V1200.64C662.329 1196.48 663.809 1193.32 666.769 1191.16C669.809 1189 674.209 1187.92 679.969 1187.92V1241.68C679.969 1247.84 678.409 1253.4 675.289 1258.36C672.249 1263.32 667.969 1267.2 662.449 1270C657.009 1272.72 650.849 1274.08 643.969 1274.08ZM699.385 1274.08C695.545 1273.76 692.545 1272.52 690.385 1270.36C688.225 1268.2 687.145 1265.48 687.145 1262.2C687.145 1259.64 687.785 1256.96 689.065 1254.16L716.185 1193.8C717.065 1191.8 718.185 1190.32 719.545 1189.36C720.985 1188.4 722.745 1187.92 724.825 1187.92C726.905 1187.92 728.625 1188.4 729.985 1189.36C731.425 1190.32 732.585 1191.8 733.465 1193.8L760.585 1254.16C761.865 1256.96 762.505 1259.6 762.505 1262.08C762.505 1265.44 761.425 1268.2 759.265 1270.36C757.105 1272.52 754.065 1273.76 750.145 1274.08L740.065 1252.12H709.465L699.385 1274.08ZM734.665 1237L722.305 1206.28L720.625 1207L723.865 1215.04L714.745 1237H734.665ZM782.574 1273C780.014 1273 777.814 1272.08 775.974 1270.24C774.214 1268.4 773.334 1266.2 773.334 1263.64V1200.64C773.334 1196.32 774.774 1193.12 777.654 1191.04C780.534 1188.96 784.974 1187.92 790.974 1187.92V1257.76H821.934C825.934 1257.76 828.974 1259.08 831.054 1261.72C833.214 1264.28 834.294 1268.04 834.294 1273H782.574Z" fill="#E9EDED"/>
</svg>
